<svg width="777" height="777" viewBox="0 0 100 100" fill="none" xmlns="http://www.w3.org/2000/svg">
<g clip-path="url(#clip0_2_2)">
<path d="M100 0H0V100H100V0Z" fill="#0C0B1D"/>
<path d="M65.8371 41.5881L58.776 45.6753L58.7661 47.1822L59.9074 46.5226C60.3243 46.2816 60.8456 46.5824 60.8456 47.0639V64.9105C63.7446 63.9517 65.8371 61.2194 65.8371 57.9989V41.5881Z" fill="white"/>
<path d="M65.8366 37.6413V39.1008L60.8452 41.9796V34.8959L60.8495 34.9447C60.8495 33.6774 59.8234 32.6499 58.5547 32.6499C57.2875 32.6499 56.2599 33.6774 56.2599 34.9447H56.2642V64.9104C54.8147 64.431 53.5676 63.5082 52.6821 62.3027C52.1454 61.5708 51.7421 60.7341 51.5067 59.8298C51.4393 59.5688 51.3847 59.3018 51.346 59.029C51.2986 58.6919 51.2742 58.3489 51.2742 57.9987V37.6413C51.2742 33.6199 54.5349 30.3609 58.5547 30.3609C60.5653 30.3609 62.3865 31.176 63.704 32.4935C65.0214 33.8109 65.8366 35.6307 65.8366 37.6413Z" fill="white"/>
<path d="M48.7153 41.5881L41.6543 45.6753L41.6444 47.1822L42.2807 46.8145C42.922 46.4438 43.7239 46.9066 43.7239 47.6473V64.9106C46.6229 63.9517 48.7153 61.2194 48.7153 57.9989V41.5881Z" fill="white"/>
<path d="M39.1387 34.9449C39.1387 33.6777 40.1662 32.6502 41.4335 32.6502C42.7021 32.6502 43.7283 33.6777 43.7283 34.9449L43.724 34.896V41.98L48.7154 39.1011V37.6416C48.7154 35.6308 47.9002 33.8112 46.5827 32.4937C45.2653 31.1761 43.4441 30.3611 41.4335 30.3611C37.4137 30.3611 34.153 33.6203 34.153 37.6416V57.999C34.153 59.6091 34.6768 61.0973 35.5609 62.303C36.4464 63.5083 37.6935 64.4313 39.143 64.9106V34.9449L39.1387 34.9449Z" fill="white"/>
<path d="M49.9989 22.642C34.451 22.642 26.46 30.3834 26.46 38.3937V58.6414C26.46 64.7206 31.761 71.0518 39.727 71.0518C32.809 67.5581 31.4499 61.5064 31.4499 58.6414V38.3937C31.4499 33.0387 35.8837 24.931 49.9989 24.931C64.114 24.931 68.5478 33.0387 68.5478 38.3937V58.6414C68.5478 61.5064 67.1887 67.5581 60.2708 71.0518C68.2368 71.0518 73.5378 64.7207 73.5378 58.6414V38.3937C73.5378 30.3834 65.5467 22.642 49.9989 22.642Z" fill="white"/>
<path d="M56.3016 71.0584C53.1113 72.8165 51.1652 75.1198 50.007 77.35C48.8489 75.1198 46.9028 72.8165 43.7125 71.0584C46.9028 69.3004 48.8489 66.997 50.007 64.7668C51.1652 66.997 53.1113 69.3004 56.3016 71.0584Z" fill="#FFF200"/>
</g>
<defs>
<clipPath id="clip0_2_2">
<rect width="777" height="777" fill="white"/>
</clipPath>
</defs>
</svg>
