<svg xmlns="http://www.w3.org/2000/svg" viewBox="0 0 2000 1000"><defs><style>.cls-1{fill:#fff;}.cls-2{fill:#ececec;}.cls-2,.cls-3{isolation:isolate;}.cls-3{fill:#b1b1b1;}.cls-4{fill:#999;}.cls-5{fill:#1d1d1b;}.cls-6{fill:#fb8af8;}.cls-7{fill:#ffc03c;}.cls-8{fill:#ffe600;}.cls-9{fill:red;}.cls-10{fill:#ff6f00;}.cls-11{fill:#fa0;}.cls-12{fill:#ff0;}</style></defs><g id="Layer_1" data-name="Layer 1"><path class="cls-1" d="M1436.2,419.42h-37.85V608.88h37.85v37.86H1512v37.85H1398.35v37.85h151.51V684.59h37.85v-303H1436.2Zm37.85,0h38V608.88h-38Z"/><path class="cls-1" d="M1644.55,381.56v37.86h-37.86V608.88h37.86v37.86h75.8v37.85H1606.69v37.85h151.52V684.59h37.85v-303Zm75.8,227.32H1682.4V419.42h37.95Z"/><path class="cls-2" d="M1540.45,684.59h9.41v37.85h-9.41Z"/><path class="cls-2" d="M1464.64,419.42h9.41V608.88h-9.41Z"/><path class="cls-2" d="M1578.3,381.56h9.41v303h-9.41Z"/><path class="cls-2" d="M1748.79,684.59h9.42v37.85h-9.42Z"/><path class="cls-2" d="M1673,419.42h9.42V608.88H1673Z"/><path class="cls-2" d="M1786.65,381.56h9.41v303h-9.41Z"/><polygon class="cls-1" points="1398.35 490.72 1398.35 528.38 1379.52 528.38 1379.52 537.79 1360.69 537.79 1360.69 547.2 1341.86 547.2 1341.86 566.03 1332.45 566.03 1332.45 509.55 1341.86 509.55 1341.86 500.14 1360.69 500.14 1360.69 490.72 1398.35 490.72"/><path class="cls-3" d="M999.07,547.2h9.41v9.42h-9.41Z"/><path class="cls-3" d="M1332.45,566v-9.41"/><path class="cls-3" d="M1351.28,556.62h-9.42V547.2h9.42Z"/><path class="cls-2" d="M1341.86,566h-9.41v-9.41h9.41Zm18.83-18.83h-18.83v-9.41h18.83Z"/><path class="cls-2" d="M1379.52,537.79h-18.83v-9.41h18.83Z"/><path class="cls-2" d="M1398.35,528.38h-18.83V519h18.83Z"/><path class="cls-2" d="M1046,592.89v55.45h18.49V639.1h18.48v9.24h18.48v18.48h-46.21v18.49h-18.48V324.9h18.48v9.24H1046V592.89Z"/><path class="cls-2" d="M1129.14,666.82h-27.72v18.49h46.21V666.82h-18.49Zm101.66,0h-27.73v18.49h46.21V666.82H1230.8Z"/><path class="cls-2" d="M1203.07,648.34h-18.48V639.1h-18.48v9.24h-18.48v18.48h55.44V648.34Zm-92.41-351.16h18.48v-9.25h-37v9.25h18.48Zm-37,18.48h18.48v-9.24h-37v9.24h18.49Zm221.79,286.47v46.21h-9.25V639.1h-18.48v9.24h-18.48v18.48h46.21v18.49H1314V324.9h-18.48V602.13Z"/><path class="cls-2" d="M1221.56,269.45h-92.42v9.24h46.21v9.24h46.21V269.45Zm73.93,37h-37V324.9h37V306.42Z"/><path class="cls-2" d="M1258.52,287.93h-37v18.49h37V287.93Z"/><path class="cls-1" d="M1286.24,324.9h-27.72V306.42h-37V287.93h-46.21v-9.24h-46.21v18.49h-37v18.48h-37v18.48H1046v314.2h18.49V639.1h18.48v9.24h18.48v18.48h46.21V648.34h18.48V639.1h18.48v9.24h18.48v18.48h46.21V648.34h18.48V639.1h18.48v9.24h9.25V324.9Z"/><path class="cls-4" d="M1073.7,491.24v18.48h18.48V491.24H1073.7Zm194.06,0h-9.24v18.48H1277V491.24Z"/><path class="cls-4" d="M1055.39,731.51v9.24h9.24V750h221.79v-9.24h9.24v-9.24H1055.39Z"/><polygon class="cls-5" points="1147.63 491.24 1129.14 491.24 1129.14 509.72 1147.63 509.72 1147.63 500.48 1147.63 491.24"/><polygon class="cls-5" points="1184.59 509.72 1147.63 509.72 1147.63 528.21 1203.07 528.21 1203.07 509.72 1193.83 509.72 1184.59 509.72"/><polygon class="cls-5" points="1203.07 491.24 1203.07 509.72 1221.56 509.72 1221.56 491.24 1212.32 491.24 1203.07 491.24"/><polygon class="cls-4" points="1055.21 685.31 1055.21 703.79 1018.25 703.79 1018.25 584.86 1008.48 584.86 1008.48 566.03 1018.25 566.03 1018.25 509.55 1008.48 509.55 1008.48 500.14 989.66 500.14 989.66 490.72 952 490.72 952 471.9 989.66 471.9 989.66 481.31 1008.48 481.31 1008.48 490.72 1018.25 490.72 1018.25 324.9 1036.73 324.9 1036.73 685.31 1055.21 685.31"/><polygon class="cls-4" points="952 547.21 970.83 547.21 970.83 556.62 989.66 556.62 989.66 566.03 999.07 566.03 1008.48 566.03 1008.48 547.21 999.07 547.21 989.66 547.21 989.66 537.79 970.83 537.79 970.83 528.38 952 528.38 952 537.79 952 547.21"/><rect class="cls-4" x="1398.35" y="490.72" width="18.82" height="37.66"/><polygon class="cls-4" points="1398.35 528.38 1398.35 547.2 1379.52 547.2 1379.52 556.62 1360.69 556.62 1360.69 566.03 1341.86 566.03 1341.86 547.2 1360.69 547.2 1360.69 537.79 1379.52 537.79 1379.52 528.38 1398.35 528.38"/><polygon class="cls-4" points="1073.7 306.42 1092.18 306.42 1092.18 287.93 1055.21 287.93 1055.21 306.42 1064.46 306.42 1073.7 306.42"/><polygon class="cls-4" points="1110.66 287.93 1129.14 287.93 1129.14 269.45 1092.18 269.45 1092.18 287.93 1101.42 287.93 1110.66 287.93"/><polygon class="cls-4" points="1055.21 324.9 1055.21 306.42 1036.73 306.42 1036.73 324.9 1045.97 324.9 1055.21 324.9"/><polygon class="cls-4" points="1147.63 269.45 1221.56 269.45 1221.56 250.97 1129.14 250.97 1129.14 269.45 1138.38 269.45 1147.63 269.45"/><polygon class="cls-4" points="1295.48 324.9 1313.97 324.9 1313.97 306.42 1295.48 306.42 1295.48 315.66 1295.48 324.9"/><polygon class="cls-4" points="1221.56 287.93 1258.52 287.93 1258.52 269.45 1221.56 269.45 1221.56 278.69 1221.56 287.93"/><polygon class="cls-4" points="1398.35 471.9 1398.35 490.72 1360.69 490.72 1360.69 500.14 1341.86 500.14 1341.86 509.55 1332.45 509.55 1332.45 566.03 1341.86 566.03 1341.86 584.86 1332.45 584.86 1332.45 703.79 1295.49 703.79 1295.49 685.31 1313.97 685.31 1313.97 324.9 1332.45 324.9 1332.45 490.72 1341.86 490.72 1341.86 481.31 1360.69 481.31 1360.69 471.9 1398.35 471.9"/><polygon class="cls-4" points="1258.52 306.42 1295.48 306.42 1295.48 287.93 1258.52 287.93 1258.52 297.18 1258.52 306.42"/><polygon class="cls-4" points="1101.42 666.82 1055.21 666.82 1055.21 685.3 1101.42 685.3 1101.42 676.06 1101.42 666.82"/><polygon class="cls-4" points="1295.48 666.82 1249.28 666.82 1249.28 685.3 1295.48 685.3 1295.48 676.06 1295.48 666.82"/><polygon class="cls-4" points="1129.14 685.3 1101.42 685.3 1101.42 703.79 1147.63 703.79 1147.63 685.3 1138.38 685.3 1129.14 685.3"/><polygon class="cls-4" points="1203.07 666.82 1147.63 666.82 1147.63 685.3 1203.07 685.3 1203.07 676.06 1203.07 666.82"/><polygon class="cls-4" points="1230.8 685.3 1203.07 685.3 1203.07 703.79 1249.28 703.79 1249.28 685.3 1240.04 685.3 1230.8 685.3"/><polygon class="cls-5" points="1073.7 417.31 1073.7 426.55 1073.7 435.79 1082.94 435.79 1092.18 435.79 1092.18 426.55 1092.18 417.31 1082.94 417.31 1073.7 417.31"/><polygon class="cls-5" points="1129.14 408.07 1129.14 398.83 1119.9 398.83 1110.66 398.83 1101.42 398.83 1092.18 398.83 1092.18 408.07 1092.18 417.31 1101.42 417.31 1110.66 417.31 1119.9 417.31 1129.14 417.31 1129.14 408.07"/><polygon class="cls-5" points="1129.14 435.79 1138.38 435.79 1147.63 435.79 1147.63 426.55 1147.63 417.31 1138.38 417.31 1129.14 417.31 1129.14 426.55 1129.14 435.79"/><polygon class="cls-5" points="1258.52 417.31 1258.52 426.55 1258.52 435.79 1267.76 435.79 1277 435.79 1277 426.55 1277 417.31 1267.76 417.31 1258.52 417.31"/><polygon class="cls-5" points="1258.52 398.83 1249.28 398.83 1240.04 398.83 1230.8 398.83 1221.56 398.83 1221.56 408.07 1221.56 417.31 1230.8 417.31 1240.04 417.31 1249.28 417.31 1258.52 417.31 1258.52 408.07 1258.52 398.83"/><polygon class="cls-5" points="1203.07 417.31 1203.07 426.55 1203.07 435.79 1212.32 435.79 1221.56 435.79 1221.56 426.55 1221.56 417.31 1212.32 417.31 1203.07 417.31"/><path class="cls-1" d="M242,419.42H204.16V608.88H242v37.86h75.8v37.85H204.16v37.85H355.68V684.59h37.85v-303H242Zm37.85,0h37.95V608.88H279.87Z"/><polygon class="cls-1" points="564.35 381.56 488.54 381.56 488.54 305.75 412.83 305.75 412.83 646.74 488.54 646.74 488.54 419.42 526.49 419.42 526.49 646.74 602.2 646.74 602.2 419.42 564.35 419.42 564.35 381.56"/><polygon class="cls-1" points="781.81 495.22 696.39 495.22 696.39 419.42 743.95 419.42 743.95 457.27 781.81 457.27 781.81 419.42 781.81 381.56 658.53 381.56 658.53 419.42 620.68 419.42 620.68 495.22 658.53 495.22 658.53 533.08 743.95 533.08 743.95 608.88 696.49 608.88 696.49 571.03 620.68 571.03 620.68 608.88 620.68 646.74 781.81 646.74 781.81 608.88 819.66 608.88 819.66 533.08 781.81 533.08 781.81 495.22"/><polygon class="cls-1" points="913.95 419.42 989.66 419.42 989.66 381.56 913.95 381.56 913.95 343.71 838.14 343.71 838.14 381.56 800.29 381.56 800.29 419.42 838.14 419.42 838.14 608.88 876 608.88 876 646.74 989.66 646.74 989.66 608.88 913.95 608.88 913.95 419.42"/><polygon class="cls-4" points="933.17 490.72 933.17 528.38 942.59 528.38 952 528.38 952 490.72 942.59 490.72 933.17 490.72"/><path class="cls-2" d="M270.46,419.42h9.41V608.88h-9.41Z"/><path class="cls-2" d="M384.12,381.56h9.41v303h-9.41Z"/><path class="cls-2" d="M346.26,684.59h9.42v37.85h-9.42Z"/><path class="cls-2" d="M479.12,419.42h9.42V646.74h-9.42Z"/><path class="cls-2" d="M479.12,305.75h9.42v75.81h-9.42Z"/><path class="cls-2" d="M554.93,381.56h9.42v37.86h-9.42Z"/><path class="cls-2" d="M687.08,571h9.41v37.86h-9.41Z"/><path class="cls-2" d="M772.39,495.22h9.42v37.86h-9.42Z"/><path class="cls-2" d="M772.39,608.88h9.42v37.86h-9.42Z"/><path class="cls-2" d="M980.24,608.88h9.42v37.86h-9.42Z"/><path class="cls-2" d="M980.24,381.56h9.42v37.86h-9.42Z"/><path class="cls-2" d="M904.54,343.71H914v37.85h-9.41Z"/><path class="cls-2" d="M904.54,419.42H914V608.88h-9.41Z"/><path class="cls-2" d="M772.39,381.56h9.42v75.71h-9.42Z"/><path class="cls-2" d="M687,419.42h9.42v75.26H687Z"/><path class="cls-2" d="M810.25,533.08h9.41v75.8h-9.41Z"/><path class="cls-2" d="M592.79,419.42h9.41V646.74h-9.41Z"/><polygon class="cls-1" points="1018.25 509.55 1018.25 566.03 1008.49 566.03 1008.49 547.2 989.66 547.2 989.66 537.79 970.83 537.79 970.83 528.37 952.01 528.37 952.01 490.72 989.66 490.72 989.66 500.14 1008.48 500.14 1008.48 509.55 1018.25 509.55"/><path class="cls-2" d="M1008.48,556.62h9.77V566h-9.77Zm-18.82-18.83h18.82v9.41H989.66Z"/><path class="cls-2" d="M970.83,528.38h18.83v9.41H970.83Z"/><path class="cls-2" d="M952,519h18.83v9.42H952Z"/></g><g id="Layer_2" data-name="Layer 2"><polygon class="cls-6" points="1147.63 250.96 1221.56 250.96 1221.56 232.48 1129.14 232.48 1129.14 250.96 1138.38 250.96 1147.63 250.96"/><path d="M1221.54,232.47v-9.25h-18.49v9.25h-18.49v-9.25h-18.49v9.25h-18.49v-9.25h-18.49v9.25h-9.24v9.24h9.24V260.2h9.25v9.24h9.24v9.25h55.47v-9.25h9.25V260.2h9.24V241.71h9.25v-9.24Z"/><path class="cls-7" d="M1212.3,232.47h-9.25v9.24h-18.49v-9.24h-18.49v9.24h-18.49v-9.24h-18.49v9.24h9.25V260.2h18.49v18.49h37V260.2h18.49V241.71h9.24v-9.24Z"/><path class="cls-8" d="M1129.09,232.47v9.24h18.49v-9.24h-18.49Zm37,0v9.24h18.49v-9.24h-18.49Zm46.23,0h-9.25v9.24h18.49v-9.24Z"/><path class="cls-9" d="M1008.54,462.29V443.41H999.1V434h-9.44v-9.44h-9.44v-9.44H961.33v9.44h-9.44V434h-9.44v9.45H933v18.88h-9.44v37.76H933v9.44h9.44v9.45h9.44v9.44h37.77v-9.44h9.44v-9.45h9.44v-9.44H1018V462.29Z"/><path class="cls-10" d="M999.1,471.73V452.85h-9.44v-9.44h-9.44V434h-9.45v-9.44h-9.44v18.89h-9.44v9.44h-9.44v18.88H933v28.32h9.44v9.44h9.44v9.45h37.77v-9.45h9.44v-9.44h9.44V471.73Z"/><path class="cls-11" d="M989.66,471.73V452.85h-9.44v-9.44h-9.45v9.44h-9.44v9.44h-9.44v-9.44h-9.44v56.64h9.44v9.45h37.77V500.05h9.44V471.73Z"/><path class="cls-12" d="M980.22,471.73v-9.44H961.33v9.44h-9.44v18.88h-9.44v18.88h9.44v9.45h28.33V500.05h9.44V481.17h-9.44Z"/><path class="cls-12" d="M989.66,471.73h9.44v9.44h-9.44Zm-9.44-18.88h9.44v9.44h-9.44Zm-37.77,9.44h9.44v9.44h-9.44Z"/><path class="cls-9" d="M1417.23,462.29V443.41h-9.44V434h-9.44v-9.44h-9.44v-9.44H1370v9.44h-9.45V434h-9.44v9.45h-9.44v18.88h-9.44v37.76h9.44v9.44h9.44v9.45h9.44v9.44h37.77v-9.44h9.44v-9.45h9.44v-9.44h9.44V462.29Z"/><path class="cls-10" d="M1407.79,471.73V452.85h-9.44v-9.44h-9.44V434h-9.44v-9.44H1370v18.89h-9.45v9.44h-9.44v18.88h-9.44v28.32h9.44v9.44h9.44v9.45h37.77v-9.45h9.44v-9.44h9.44V471.73Z"/><path class="cls-11" d="M1398.35,471.73V452.85h-9.44v-9.44h-9.44v9.44H1370v9.44h-9.45v-9.44h-9.44v56.64h9.44v9.45h37.77V500.05h9.44V471.73Z"/><path class="cls-12" d="M1388.91,471.73v-9.44H1370v9.44h-9.45v18.88h-9.44v18.88h9.44v9.45h28.33V500.05h9.44V481.17h-9.44Z"/><path class="cls-12" d="M1398.35,471.73h9.44v9.44h-9.44Zm-9.44-18.88h9.44v9.44h-9.44Zm-37.77,9.44h9.44v9.44h-9.44Z"/></g></svg>