<svg xmlns="http://www.w3.org/2000/svg" width="9504" height="6336">
  <path fill='#1c1c1c' d="M4752.0002 6335.9995h-16v-304.0002h-4432V3184.0002H0v-32.0004h304.0002V304.0002h4432V0h32.0004v304.0002h4431.9999v2847.9996h304.0002v32.0004h-304.0002v2847.9991H4768.0006v304.0002zm-3276.0004-320.0006h1156.0003v-351.9992H671.9999v-903.9995H320.0001v1255.9987zm2216.0001 0h1044.0003v-351.9992H2647.9999v351.9992zm2120.0003 0h1044.0003v-351.9992H4768.0006v351.9992zm2216.0005 0h1155.9998V4760.0002h-351.9999v903.9995H6872.0009v351.9992zM1136.0001 5632H1568v-863.9998H704.0002V5632Zm976.0002 0h511.9999v-543.9999h-519.9999v-319.9999h-503.9999V5632Zm1056.0001 0h511.9999v-543.9999H2656V5632Zm1056.0006 0h511.9992v-543.9999H3712.0001V5632Zm1055.9991 0h512.0006v-543.9999H4768.0006V5632Zm1056.0005 0h511.9999v-543.9999H5824.0004V5632ZM7392 5632h511.9999v-863.9998H7400v319.9999h-519.9995V5632Zm976.0004 0h432.0001v-863.9998h-863.9998V5632Zm-5460.0002-576h772.0001v-608h-904.0001v-736h-640.0001v1344Zm1844 0h1040.0005v-608H3712.0001v608Zm1844.0004 0h772.0001V3712h-640.0004v736h-903.9999v608ZM496 4744.0002h175.9999v-1560H320.0001v1560Zm8512.0009 0h175.9996v-1560h-351.9999v1560Zm-7872.0008-8.0004H1568V3712H704.0002v1023.9998zm715.9999 0h252.0003V3712h-503.9999v1023.9998zm5800.0007 0h251.9992V3712H7400v1023.9998zm715.9997 0h432.0001V3712h-863.9998v1023.9998zm-5124.0002-319.9995h436.0001V3712H2808v704.0003zm980.0008 0h511.9992v-576.0004h-703.9999v-655.9997h-320.0002v1232.0001zm1055.9991 0h512.0006V3184.0002h-320.0002v655.9997h-703.9999v576.0004zm980.0006 0h435.9995V3712h-871.9998v704.0003zM4224.001 3807.9999h159.9996v-127.9998h-120.0002v-344.0004H4064v472.0002Zm343.9996 0h175.9999v-127.9998h-352.0003v127.9998zm367.9996 0h175.9999v-127.9998h-351.9999v127.9998zm343.9999 0H5440v-472.0002h-199.9996v344.0004h-120.0003v127.9998zm-4144-127.9998H1568V2655.9998H704.0002v1024.0003zm1051.9999 0h588.0002V2655.9998H1600.0004v1024.0003zm1056.0002 0h436.0001v-495.9999H2808v495.9999zm3016.0005 0h435.9995v-495.9999h-871.9998v495.9999zm1055.9994 0h587.9998V2655.9998H6728.0003v1024.0003zm1052.0003 0h432.0001V2655.9998h-863.9998v1024.0003zm-3972-7.9998h124.0001v-80.0001h-248.0001v80.0001zm239.9997 0h108.0004v-80.0001h-216.0004v80.0001zm232.0005 0h108v-80.0001h-216.0004v80.0001zm240.0001 0h124v-80.0001h-248.0001v80.0001zm-600.0004-88.0006h236.0002v-8h-40.0004v-95.9999h40.0004v-250.0001h-54V3190h-224.0004v145.9997h-8v54.0001h148.0008v156.0003h-198.0006v29.9996h-95.9998v-240h-40.0001v248zm488.0002 0h236.0002v-248h-40.0004v240h-95.9998v-29.9996h-198.0007v-156.0003h148.0005v-54.0001h-8V3190h-224.0001v39.9997h-54v250.0001h40.0001v95.9999h-40.0001v8zm-636.0003-15.9999h40v-80h-79.9993v80zm392 0h40.0004v-80h-80.0005v80zm392.0004 0h39.9997v-80h-80.0002v80zm-715-29.9997h20.9995v-202.0004h-129.9992v144.0001h87.9994v58.0003zm98.9995 0h70.0001v-140.0004h-140.0001v140.0004zm448.0005 0h69.9997v-140.0004h-139.9997v140.0004zm98.9992 0h21.0007v-58.0003h87.9998v-144.0001h-130v202.0004zm-911.0002-218.0003h100.0008v-303.9996H4064v303.9996zm156.0013 0h47.9993v-55.9996h-87.9998v-96.0005h95.9998v152.0001h73.9999v-145.9997h8v-42.0004h-147.9994v-155.9998h65.9995v-55.9996H4288v-96.0005h96.0006v152.0001h81.9995v198.0002h224.0004v-67.9998h49.9998v-152.0007h-240v-229.9994h-124.0001v-60.0004h-103.9998v656zm770.9997 0h36.9999v-152.0001h95.9998v96.0005h-87.9997v55.9996h96.0001v-656h-104.0002v60.0004h-124v229.9994h-240.0001v152.0007h49.9998v67.9998h224.0001v-198.0002h81.9998v-152.0001H5216v96.0005h-87.9995v55.9996h65.9999v155.9998h-148.0001v42.0004h8v145.9997zm248.9998 0H5440v-303.9996h-199.9996v303.9996zm-1011.9999-63.9996h39.9997v-80.0005H4288v80.0005zm847.9998 0H5216v-80.0005h-79.9994v80.0005zm-455.0001-34.0004h23.0003v-1.9996h2.0001v-2.0001h3.9999v-42.0004H4748v-1.9996h-1.9994V3172h-2.0001v-8h2.0001v-2.0001H4748v-2.0001h8.0008v2.0001h1.9993V3164h2.0001v8h-2.0001v2.0001h-1.9993v1.9996h-2.0001v42.0004h3.9994v2.0001h2.0001v1.9996h46v-107.9996h-108v107.9996zm31-47.9997h2.0001V3172h2.0005v-2.0002h1.9993v-3.9997h-1.9993V3164h-2.0005v-2.0001h-3.9998V3164H4748v2.0001h-1.9994v3.9997H4748V3172h2.0005v2.0001zM496 3151.9998h175.9999V1591.9997H320.0001v1560.0001zm2748.0002 0h436.0001v-496H2808v496zm628.0002 0h159.9999v-656h703.9999v-576H3712.0001v1232zm1760.0004 0h159.9999v-1232H4768.0006v576h703.9999v656zm627.9999 0h435.9995v-496h-871.9998v496zm2748.0002 0h175.9996V1591.9997h-351.9999v1560.0001zm-4620.0005-28.0001h69.9997v-139.9999h-139.9997v139.9999zm727.9999 0h70.0001v-139.9999h-140.0001v139.9999zm-364.0001-17.9994h4.0006v-152.0007H4748v152.0007zm-588.0006-106.0006h100.0008v-343.9999h111.9998v-127.9997H4064v471.9996zm1176.0008 0H5440v-471.9996h-311.9995v127.9997h111.9999v343.9999zm-712.0003-62h112.0002v-71.9995h-65.9998v-148.0004h-32.0004v49.9998h-96.0002v-95.9999h96.0002v38.0002h102.0004v-46.0001h-352.0003v43.9999h124.0005v230zm124.0001 0h4.0006v-71.9995H4748v71.9995zm124 0h111.9999v-230h124v-43.9999h-351.9999v46.0001h101.9997v-38.0002h96.0006v95.9999h-96.0006v-49.9998h-31.9997v148.0004h-65.9998v71.9995zm-540.0001-25.9999h40.0001v-80h-80.0005v80zm832.0001 0h39.9997v-80h-79.9994v80zm-416-54.0001h70v-139.9999h-139.9997v139.9999zm-157.9995-98.0001H4634v-79.9994h-79.9997v79.9994zm315.9993 0h40.0005v-79.9994h-79.9998v79.9994zm-341.9994-103.9998h175.9999v-127.9997h-352.0003v127.9997zm367.9996 0h175.9999v-127.9997h-351.9999v127.9997zm-3800.0001-31.9997H1568V1599.9997H704.0002v1024.0004zm715.9999 0h252.0003V1599.9997h-503.9999v1024.0004zm604.0002 0h320V1888h904.0001v-607.9999H2136.0001v1344zm788 0h436.0001v-704.0003H2808v704.0003zm3016.0005 0h435.9995v-704.0003h-871.9998v704.0003zm787.9994 0h320.0006v-1344H5824.0004V1888h903.9999v736.0001zm604.0006 0h251.9992V1599.9997H7400v1024.0004zm715.9997 0h432.0001V1599.9997h-863.9998v1024.0004zM4752.0002 1888h1040.0005v-607.9999H3712.0001V1888ZM496 1575.9998h175.9999v-904h1960.0002V320.0001h-2312v1255.9997zm8512.0009 0h175.9996V320.0001H6872.0009v351.9997h1959.9997v904zm-7872.0008-7.9999H1568V704.0001H704.0002v863.9998Zm715.9999 0h252.0003v-320.0001h519.9999V704.0001H1600.0004v863.9998Zm5800.0007 0h251.9992V704.0001H6880.0005v543.9997H7400v320.0001zm715.9997 0h432.0001V704.0001h-863.9998v863.9998Zm-5200-320.0001h511.9999V704.0001H2656v543.9997Zm1056.0006 0h511.9992V704.0001H3712.0001v543.9997Zm1055.9991 0h512.0006V704.0001H4768.0006v543.9997Zm1056.0005 0h511.9999V704.0001H5824.0004v543.9997Zm-2644.0007-576h1044.0003V320.0001H2647.9999v351.9997Zm2120.0003 0h1044.0003V320.0001H4768.0006v351.9997Z"/>
  <path fill='#3e3e3e' d="M4709.9324 6322.0426h-7.9993v-17.9997h6.0022v-10.0001h-2.0009v-2.0009h-14.0018v4.0017h-10.0001v-4.0017h-25.9994v2.0009h-7.9996v-2.0009h-72.0002v2.0009h-8.0019v-2.0009h-71.9994v2.0009h-7.9996v-2.0009H4415.93v2.0009h-7.9996v-2.0009h-71.9994v2.0009h-7.9997v-2.0009h-72.0024v2.0009h-7.9992v-2.0009h-48.0009v2.0009h-7.9993v-2.0009h-72.0001v2.0009h-8.0023v-2.0009h-71.999v2.0009h-8v-2.0009h-72.0024v2.0009h-7.9996v-2.0009h-71.9991v2.0009h-8v-2.0009h-72.0024v2.0009h-7.9992v-2.0009h-58.0004v2.0009h-8.0001v-2.0009h-22.0003v6.0011h-16v-6.0011h-22.0002v2.0009h-8v-2.0009h-58.0006v2.0009h-8.0001v-2.0009h-72.0006v2.0009h-8.0003v-2.0009h-72.0008v2.0009h-7.9998v-2.0009h-72.0007v2.0009h-8.0001v-2.0009h-72.0006v2.0009h-8.0003v-2.0009H3199.92v2.0009h-8v-2.0009h-48.0005v2.0009h-8.0003v-2.0009h-72.0006v2.0009h-7.9999v-2.0009h-72.0009v2.0009h-7.9998v-2.0009h-72.0007v2.0009h-8.0002v-2.0009h-72.0006v2.0009h-8.0002v-2.0009h-72.0006v2.0009h-7.9999v-2.0009h-58.001v2.0009h-7.9997v-2.0009h-22.0003v6.0011h-16.0001v-6.0011h-22.0002v2.0009h-8.0004v-2.0009h-58.0002v2.0009h-8.0001v-2.0009h-72.0007v2.0009h-8.0001v-2.0009h-72.0006v2.0009h-8.0003v-2.0009h-72.0005v2.0009h-8.0003v-2.0009h-72.0006v2.0009h-7.9999v-2.0009h-72.0006v2.0009h-8.0001v-2.0009h-48.0008v2.0009h-7.9997v-2.0009h-72.001v2.0009h-7.9998v-2.0009h-72.0006v2.0009h-8.0003v-2.0009h-72.0005v2.0009h-8.0004v-2.0009h-72.0005v2.0009h-7.9999v-2.0009h-72.001v2.0009h-7.9997v-2.0009h-58.0006v2.0009h-8.0003v-2.0009h-22.0004v6.0011h-16v-6.0011h-22.0003v2.0009h-7.9997v-2.0009h-58.0005v2.0009h-8.0004v-2.0009h-72.0005v2.0009h-7.9999v-2.0009h-72.001v2.0009h-8.0001v-2.0009h-72.0008v2.0009h-7.9997v-2.0009h-72.0005v2.0009h-8.0004v-2.0009h-72.0005v2.0009h-8.0004v-2.0009h-48.0001v2.0009h-8.0003v-2.0009h-72.0006v2.0009h-7.9999v-2.0009h-72.001v2.0009h-8v-2.0009h-72.0008v2.0009h-7.9997v-2.0009H711.897v2.0009h-8.0004v-2.0009h-72.0009v2.0009h-8v-2.0009h-58.0006v2.0009h-8v-2.0009h-22.0003v6.0011h-15.9997v-6.0011h-22.0003v2.0009h-8.0004v-2.0009h-58.0006v2.0009h-7.9996v-2.0009h-72.0011v2.0009h-7.9998v-2.0009h-72.001v2.0009h-7.9998v-2.0009h-72.0006v2.0009h-8.0003v-2.0009h-72.0005v2.0009h-8.0003v-2.0009H73.8907v6.0011h-14v-6.0011H43.8902v6.0011H27.8901v-18.0024h6.0002v-11.9972h-4.0001v-20.0006h4.0001v-25.9998h-2.0001v-9.9997h2.0001v-50.0013h-2.0001v-10.0005h2.0001v-70.002h-2.0001v-10.0001h2.0001v-69.9985h-2.0001v-10.0005h2.0001v-70.0019h-2.0001v-10.0002h2.0001v-69.9992h-2.0001v-9.9994h2.0001v-46.0034h-2.0001v-9.999h2.0001v-69.9996h-2.0001v-10.0005h2.0001v-70.002h-2.0001v-9.9997h2.0001v-69.9989h-2.0001v-10.0005h2.0001v-70.0019h-2.0001v-10.0001h2.0001v-69.9993h-2.0001v-9.9994h2.0001v-56.0024h-2.0001v-9.9986h2.0001v-20.0002h-6.0002v-18.0005h6.0002v-19.9999h-2.0001v-10.0001h2.0001v-56.0001h-2.0001v-10.0005h2.0001v-70.0019h-2.0001v-10.0001h2.0001v-70.0019h-2.0001v-9.999h2.0001v-69.9997h-2.0001V4936.03h2.0001v-70.0015h-2.0001v-10.0001h2.0001v-69.999h-2.0001v-10.0001h2.0001v-46h-2.0001v-10.0001h2.0001v-70.0023h-2.0001v-9.9997h2.0001v-70.002h-2.0001v-9.9997h2.0001v-69.9993h-2.0001v-10.0005h2.0001v-70.0015h-2.0001v-10.0001h2.0001v-69.9989h-2.0001v-10.0002h2.0001v-56.0001h-2.0001v-10.0005h2.0001v-20.0006h-6.0002v-17.9997h6.0002v-20.0006h-2.0001v-10.0001h2.0001v-56.0001h-2.0001v-10.0005h2.0001v-70.0016h-2.0001v-10.0001h2.0001v-69.9989h-2.0001v-10.0005h2.0001v-70.0016h-2.0001V3880.02h2.0001v-70.0023h-2.0001v-9.9997h2.0001v-69.9992h-2.0001v-10.0003h2.0001v-46.0002h-2.0001v-10.0003h2.0001v-70.0005h-2.0001v-10h2.0001v-70.0008h-2.0001v-10.0002h2.0001v-70.0003h-2.0001v-10.0002h2.0001v-70.0008h-2.0001v-9.9998h2.0001v-70.0007h-2.0001v-10.0002h2.0001v-22.0001h-4.0001v-12h4.0001v-14.0003h-2.0001v-2h-14v6H1.8897v-18.0001h16.0005v8h14v-3.9999h2.0001v-10.0002h-4.0001v-20.0001h14v20.0001h-5.9998v10.0002h2.0001v3.9999h14v-3.9999h10.0003v3.9999h28.0001v-8h5.9997v-6.0001h-3.9997v-20.0001h14v20.0001h-6.0001v6.0001h6.0001v18.0001h-6.0001v10.0003h2v3.9998h14.0004v-3.9998h10v3.9998h16v-3.9998h2.0001v-12.0002h-4.0001v-12.0001h12.0003v12.0001h-4.0001v12.0002h2.0001v9.9998h-8.0003v-1.9999h-16v4.0001h-10v-4.0001h-14.0004v1.9999H95.891v-9.9998h1.9996v-10.0003h-5.9997v-6H63.8908v4.0001H53.8905v-4.0001h-14v2h-2.0001v14.0003h4.0001v12h-4.0001v22.0001h2.0001v10.0002h-2.0001v70.0007h2.0001v9.9998h-2.0001v70.0008h2.0001v10.0002h-2.0001v70.0003h2.0001v10.0002h-2.0001v70.0008h2.0001v10h-2.0001v70.0005h2.0001v10.0003h-2.0001v46.0002h2.0001v10.0003h-2.0001v69.9992h2.0001v9.9997h-2.0001v70.0023h2.0001v10.0001h-2.0001v70.0016h2.0001v10.0005h-2.0001v69.9989h2.0001v10.0001h-2.0001v70.0016h2.0001v10.0005h-2.0001v56.0001h2.0001v10.0001h-2.0001v20.0006h5.9998v17.9997h-5.9998v20.0006h2.0001v10.0005h-2.0001v56.0001h2.0001v10.0002h-2.0001v69.9989h2.0001v10.0001h-2.0001v70.0015h2.0001v10.0005h-2.0001v69.9993h2.0001v9.9997h-2.0001v70.002h2.0001v9.9997h-2.0001v70.0023h2.0001v10.0001h-2.0001v46h2.0001v10.0001h-2.0001v69.999h2.0001v10.0001h-2.0001v70.0015h2.0001v10.0005h-2.0001v69.9997h2.0001v9.999h-2.0001v70.0019h2.0001v10.0001h-2.0001v70.0019h2.0001v10.0005h-2.0001v56.0001h2.0001v10.0001h-2.0001v19.9999h5.9998v18.0005h-5.9998v20.0002h2.0001v9.9986h-2.0001v56.0024h2.0001v9.9994h-2.0001v69.9993h2.0001v10.0001h-2.0001v70.0019h2.0001v10.0005h-2.0001v69.9989h2.0001v9.9997h-2.0001v70.002h2.0001v10.0005h-2.0001v69.9996h2.0001v9.999h-2.0001v46.0034h2.0001v9.9994h-2.0001v69.9992h2.0001v10.0002h-2.0001v70.0019h2.0001v10.0005h-2.0001v69.9985h2.0001v10.0001h-2.0001v70.002h2.0001v10.0005h-2.0001v50.0013h2.0001v9.9997h-2.0001v25.9998h5.9998v20.0006h-5.9998v11.9972h5.9998v8.0034h16.0005v-10.0001h14v10.0001h30.0001v-4.0017h8.0003v4.0017h72.0005v-4.0017h8.0003v4.0017h72.0006v-4.0017h7.9998v4.0017h72.001v-4.0017h7.9998v4.0017h72.0011v-4.0017h7.9996v4.0017h58.0006v-4.0017h8.0004v4.0017h22.0003v-8.0034h15.9997v8.0034h22.0003v-4.0017h8v4.0017h58.0006v-4.0017h8v4.0017h72.0009v-4.0017h8.0004v4.0017h72.0005v-4.0017h7.9997v4.0017h72.0008v-4.0017h8v4.0017h72.001v-4.0017h7.9999v4.0017h72.0006v-4.0017h8.0003v4.0017h48.0001v-4.0017h8.0004v4.0017h72.0005v-4.0017h8.0004v4.0017h72.0005v-4.0017h7.9997v4.0017h72.0008v-4.0017h8.0001v4.0017h72.001v-4.0017h7.9999v4.0017h72.0005v-4.0017h8.0004v4.0017h58.0005v-4.0017h7.9997v4.0017h22.0003v-8.0034h16v8.0034h22.0004v-4.0017h8.0003v4.0017h58.0006v-4.0017h7.9997v4.0017h72.001v-4.0017h7.9999v4.0017h72.0005v-4.0017h8.0004v4.0017h72.0005v-4.0017h8.0003v4.0017h72.0006v-4.0017h7.9998v4.0017h72.001v-4.0017h7.9997v4.0017h48.0008v-4.0017h8.0001v4.0017h72.0006v-4.0017h7.9999v4.0017h72.0006v-4.0017h8.0003v4.0017h72.0005v-4.0017h8.0003v4.0017h72.0006v-4.0017h8.0001v4.0017h72.0007v-4.0017h8.0001v4.0017h58.0002v-4.0017h8.0004v4.0017h22.0002v-8.0034h16.0001v8.0034h22.0003v-4.0017h7.9997v4.0017h58.001v-4.0017h7.9999v4.0017h72.0006v-4.0017h8.0002v4.0017h72.0006v-4.0017h8.0002v4.0017h72.0007v-4.0017h7.9997v4.0017h72.001v-4.0017h7.9999v4.0017h72.0006v-4.0017h8.0003v4.0017h48.0005v-4.0017h7.9999v4.0017h72.0006v-4.0017h8.0003v4.0017h72.0006v-4.0017h8.0001v4.0017h72.0007v-4.0017h7.9998v4.0017h72.0008v-4.0017h8.0003v4.0017h72.0006v-4.0017h8.0001v4.0017h58.0006v-4.0017h7.9999v4.0017h22.0003v-8.0034h16v8.0034h22.0003v-4.0017h8.0001v4.0017h58.0004v-4.0017h7.9992v4.0017h72.0024v-4.0017h8v4.0017h71.9991v-4.0017h7.9996v4.0017h72.0024v-4.0017h8v4.0017h71.999v-4.0017h8.0023v4.0017h72.0001v-4.0017h7.9993v4.0017h48.0009v-4.0017h7.9992v4.0017h72.0024v-4.0017h7.9997v4.0017h71.9993v-4.0017h7.9997v4.0017h72.0024v-4.0017h7.9996v4.0017h71.9994v-4.0017h8.0019v4.0017h72.0002v-4.0017h7.9996v4.0017h25.9994v-4.0017h10.0001v4.0017h14.0018v-4.0017h2.0009v-14.0007h-4.0014v-11.9983h4.0014v-26.0021h-6.0022v-3.999h-11.9983v2.0008h-8.0023v-10.0005h2.0008v-12.0009h-3.9983v-12.001h3.9983v-13.998h-2.0008v-10.0005h8.0023v3.9979h13.9991v-3.9979h12.0006v12.0002h-12.0006v-4.0006h-13.9991v2.0009h-2.0001v13.998h3.9979v12.001h-3.9979v12.0009h2.0001v2.0005h11.9983v-8.0026h16.0023v8.0026h9.9994v-9.9997h13.9995v19.9979h-13.9995v-3.999h-9.9994v3.999h-6.0018v26.0021h4.0009v11.9983h-4.0009v14.0007h2.0001v4.0017h14.0011v-10.0001h13.9995v19.9991h-13.9995v-6.0011h-14.0011v2.0009h-2.0001v10.0001h6.0018v17.9997zm42.0016-4764.0439h-4.0009v-10.0003h2.0005v-18.0002h-5.9988v-5.9999h-68.0015v1.9999h-7.9996v-1.9999h-72.0024v1.9999h-7.9993v-1.9999h-71.9994v1.9999h-7.9996v-1.9999h-72.0024v1.9999h-7.9997v-1.9999h-71.9993v1.9999h-8.0001v-1.9999h-72.002v1.9999h-7.9996v-1.9999h-72.0002v1.9999h-8.0019v-1.9999h-71.999v1.9999h-8v-1.9999h-72.0024v1.9999h-7.9996v-1.9999h-71.999v1.9999h-8v-1.9999h-72.0025v1.9999h-7.9992v-1.9999h-71.9994v1.9999h-8.0027v-1.9999h-21.9986v4h-10.0002v-4h-10.0001v5.9999h-16v-18.0001h6v-7.9999h-4.0001v-12.0002h12.0001v3.9999h12.0001v-3.9999h8v10.0001h-1.9999v14.0002h4.0001v3.9999h21.9986v-3.9999h8.0027v3.9999h71.9994v-3.9999h7.9992v3.9999h72.0025v-3.9999h8v3.9999h71.999v-3.9999h7.9996v3.9999h72.0024v-3.9999h8v3.9999h71.999v-3.9999h8.0019v3.9999h72.0002v-3.9999h7.9996v3.9999h72.002v-3.9999h8.0001v3.9999h71.9993v-3.9999h7.9997v3.9999h72.0024v-3.9999h7.9996v3.9999h71.9994v-3.9999h7.9993v3.9999h72.0024v-3.9999h7.9996v3.9999h68.0015v-8.0001h15.9993v8.0001h68.0007v-3.9999h8v3.9999h72.0024v-3.9999h7.9996v3.9999h71.9994v-3.9999h7.9993v3.9999h72.0027v-3.9999h7.9997v3.9999h71.9994v-3.9999h8.0007v3.9999h72.0013v-3.9999h7.9993v3.9999h72.0009v-3.9999h8.0015v3.9999h71.999v-3.9999h7.9996v3.9999h72.0028v-3.9999h7.9997v3.9999h71.999v-3.9999h7.9996v3.9999h72.0028v-3.9999h7.9996v3.9999h71.9994v-3.9999h8.0019v3.9999h21.9985v-3.9999h2.0008v-14.0002h-2.0008v-10.0001h8v3.9999h14.0014v-3.9999h12.001v12.0002h-4.0013v7.9999h5.9987v18.0001h-15.9992v-5.9999h-10.0005v4h-10.0001v-4h-21.9985v1.9999h-8.0019v-1.9999h-71.9994v1.9999h-7.9996v-1.9999h-72.0028v1.9999h-7.9996v-1.9999h-71.999v1.9999h-7.9997v-1.9999h-72.0028v1.9999h-7.9996v-1.9999h-71.999v1.9999h-8.0015v-1.9999h-72.0009v1.9999h-7.9993v-1.9999h-72.0013v1.9999h-8.0007v-1.9999h-71.9994v1.9999h-7.9997v-1.9999h-72.0027v1.9999h-7.9993v-1.9999h-71.9994v1.9999h-7.9996v-1.9999h-72.0024v1.9999h-8v-1.9999h-68.0007v5.9999h-5.9992v18.0002h2.0009v10.0003zm-1001.0087-38.0005h4.9999v-3.9999h2v-14.0002h-2v-2h-12.0001v4.0001h-4.0001v7.9999h6.0001v8.0001zm2002.0198 0h4.9984v-8.0001h6.0003v-7.9999h-3.9995v-4.0001h-14.0014v2h-1.9975v14.0002h3.9976v3.9999zm1331.0118 1088.0102h-8.0019v-18.0002h6.0022v-7.9999h-4.0013v-12.0002h4.0013v-98.001h-2.0009v-10.0001h2.0009v-70.0006h-2.0009v-10.0002h2.0009v-70.0005h-2.0009v-10.0001h2.0009v-70.0008h-2.0009v-9.9998h2.0009v-70.0008h-2.0009v-10.0002h2.0009v-70.0005h-2.0009v-10.0003h2.0009v-70.0006h-2.0009v-10h2.0009v-70.0007h-2.0009v-10.0001h2.0009v-70.0008h-2.0009v-9.9999h2.0009v-70.0007h-2.0009v-10.0001h2.0009v-70.0006h-2.0009v-10.0002h2.0009v-70.0007h-2.0009v-10h2.0009v-32.0004h-4.0013v-4h-12.0014v2h-7.9992v-10h2.0008v-10.0001h-4.0006v-4h-23.9996v1.9999h-7.9997v-1.9999h-72.0028v1.9999h-7.9992v-1.9999h-71.999v1.9999h-8v-1.9999h-72.0028v1.9999h-7.9993v-1.9999h-71.999v1.9999h-8.0008v-1.9999h-72.0016v1.9999h-7.9996v-1.9999h-72.0002v1.9999h-8.0019v-1.9999h-71.9994v1.9999h-7.9992v-1.9999h-72.0028v1.9999h-7.9997v-1.9999h-71.999v1.9999h-7.9996v-1.9999h-72.0028v1.9999h-7.9993v-1.9999h-71.9993v1.9999h-8.0023v-1.9999h-72.0002v1.9999h-7.9992v-1.9999h-72.0013v1.9999h-8.0011v-1.9999h-71.999v1.9999h-7.9997v-1.9999h-26.0013v4h-9.9989v-4h-9.9994v5.9999h-16.0027v-18.0001h6.0022v-7.9999h-4.0017v-12.0002h12.0013v3.9999h12.0003v-3.9999h8.0003v10.0001h-2.0008v14.0002h3.9994v3.9999h26.0013v-3.9999h7.9997v3.9999h71.999v-3.9999h8.0011v3.9999h72.0013v-3.9999h7.9992v3.9999h72.0002v-3.9999h8.0023v3.9999h71.9993v-3.9999h7.9993v3.9999h72.0028v-3.9999h7.9996v3.9999h71.999v-3.9999h7.9997v3.9999h72.0028v-3.9999h7.9992v3.9999h71.9994v-3.9999h8.0019v3.9999h72.0002v-3.9999h7.9996v3.9999h72.0016v-3.9999h8.0008v3.9999h71.999v-3.9999h7.9993v3.9999h72.0028v-3.9999h8v3.9999h71.999v-3.9999h7.9992v3.9999h72.0028v-3.9999h7.9997v3.9999h23.9996v-3.9999h11.9999v3.9999h7.9996v-8.0001h16.0023v18.0001h-6.0022v8.0002h4.0017v12h-4.0017v32.0004h2.0009v10h-2.0009v70.0007h2.0009v10.0002h-2.0009v70.0006h2.0009v10.0001h-2.0009v70.0007h2.0009v9.9999h-2.0009v70.0008h2.0009v10.0001h-2.0009v70.0007h2.0009v10h-2.0009v70.0006h2.0009v10.0003h-2.0009v70.0005h2.0009v10.0002h-2.0009v70.0008h2.0009v9.9998h-2.0009v70.0008h2.0009v10.0001h-2.0009v70.0005h2.0009v10.0002h-2.0009v70.0006h2.0009v10.0001h-2.0009v98.001h4.0017v3.9999h13.9981v-3.9999h8.0026v10h-2.0004v14.0002h3.9983v12.0002h-11.998v-4.0001h-10.0001v6zm12.9991-10.0001h5.0014v-4h3.9983v-14.0002h-2.0008v-2h-13.9981v4.0002h-4.0017v7.9999h6.0022v8.0001zm-24.9989-1056.0098h5.9988v-4.0001h4.0013v-8.0002h-6.0022v-5.9999h-7.9996v4h-3.9983v10.0001h1.9974v4.0001zm-1209.0126-22.0003h5.0014v-3.9999h1.9978v-14.0002h-1.9978v-2h-12.0003v4.0001h-4.0017v7.9999h6.0026v8.0001zM2419.9127 2608.0084h-8v-6h-10.0001v4.0001h-12.0001v-12.0002h4.0001v-14.0002h-2.0005v-10h8.0004v3.9999h14v-3.9999h4.0002v-98.001h-2.0001v-10.0001h2.0001v-70.0006h-2.0001v-10.0002h2.0001v-70.0005h-2.0001v-10.0001h2.0001v-70.0008h-2.0001v-9.9998h2.0001v-70.0008h-2.0001v-10.0002h2.0001v-70.0005h-2.0001v-10.0003h2.0001v-70.0006h-2.0001v-10h2.0001v-70.0007h-2.0001v-10.0001h2.0001v-70.0008h-2.0001v-9.9999h2.0001v-70.0007h-2.0001v-10.0001h2.0001v-70.0006h-2.0001v-10.0002h2.0001v-70.0007h-2.0001v-10h2.0001v-32.0004h-4.0002v-12h4.0002v-8.0002h-6v-18.0001h15.9997v8.0001h8.0004v-3.9999h12.0002v3.9999h24v-3.9999h8.0004v3.9999h72.0005v-3.9999h7.9998v3.9999h72.001v-3.9999h8.0002v3.9999h72.0006v-3.9999h7.9999v3.9999h72.0005v-3.9999h8.0004v3.9999h72.0005v-3.9999h8.0002v3.9999h72.0007v-3.9999h8.0001v3.9999h72.0007v-3.9999h7.9997v3.9999h72.001v-3.9999h8v3.9999h72.0008v-3.9999h8v3.9999h72.0005v-3.9999h8.0003v3.9999h72.0006v-3.9999h8.0001v3.9999h72.0007v-3.9999h7.9998v3.9999h72.0008v-3.9999h8.0003v3.9999h72.0006v-3.9999h8.0001v3.9999h26.0001v-3.9999h2.0001v-14.0002h-2.0001v-10.0001h8.0002v3.9999h14v-3.9999h12.0003v12.0002h-4.0002v7.9999h6.0001v18.0001h-16.0001v-5.9999h-10.0001v4h-10.0002v-4h-26.0001v1.9999h-8.0001v-1.9999h-72.0006v1.9999h-8.0003v-1.9999h-72.0008v1.9999h-7.9998v-1.9999h-72.0007v1.9999h-8.0001v-1.9999h-72.0006v1.9999h-8.0003v-1.9999H3199.92v1.9999h-8v-1.9999h-72.0008v1.9999h-8v-1.9999h-72.001v1.9999h-7.9997v-1.9999h-72.0007v1.9999h-8.0001v-1.9999h-72.0007v1.9999h-8.0002v-1.9999h-72.0005v1.9999h-8.0004v-1.9999h-72.0005v1.9999h-7.9999v-1.9999h-72.0006v1.9999h-8.0002v-1.9999h-72.001v1.9999h-7.9998v-1.9999h-72.0005v1.9999h-8.0004v-1.9999h-24v4h-4v10.0001h1.9996v10h-7.9997v-2h-12.0001v4h-4v32.0004h2v10h-2v70.0007h2v10.0002h-2v70.0006h2v10.0001h-2v70.0007h2v9.9999h-2v70.0008h2v10.0001h-2v70.0007h2v10h-2v70.0006h2v10.0003h-2v70.0005h2v10.0002h-2v70.0008h2v9.9998h-2v70.0008h2v10.0001h-2v70.0005h2v10.0002h-2v70.0006h2v10.0001h-2v98.001h4v12.0002h-4v7.9999h5.9996v18.0002zm-13.0001-10.0001h5.0001v-8.0001h6v-7.9999h-4.0002v-4.0002h-14v2h-2.0001v14.0002h4.0002v4zm25-1056.0098h6.0003v-4.0001h2v-10.0001h-4.0001v-4h-8.0004v5.9999h-5.9996v8.0002h4v4.0001zm1209.0115-22.0003h5.0001v-8.0001h6.0001v-7.9999h-4.0002v-4.0001h-14v2h-2.0001v14.0002h4.0001v3.9999zm2005.0191 1616.0152h-7.9996v-18.0002h3.9979v-8.0001h-1.9978v-12h1.9978v-82.0009h-1.9978v-10.0001h1.9978v-70.0006h-1.9978v-10.0001h1.9978v-70.0008h-1.9978v-9.9999h1.9978V2776.01h-1.9978v-10.0002h1.9978v-70.0005h-1.9978v-10.0002h1.9978v-30.0003h-3.9979v-4.0001h-17.9997v2.0002h-10.0002v-12.0001h10.0002v3.9999h17.9997v-8h3.9979v-22.0003h-1.9978v-9.9999h1.9978v-70.0008h-1.9978v-10.0001h1.9978v-70.0005h-1.9978v-10.0002h1.9978v-24.0003h-3.9979v-20.0001h3.9979v-10.0001h-3.9979v-4.0002h-12.001v4.0002h-15.9989v-4.0002h-30.0011v2.0003h-7.9992v-2.0003h-72.0032v2.0003h-7.9992v-2.0003h-71.999v2.0003h-8.0004v-2.0003h-72.0021v2.0003h-7.9996v-2.0003h-71.9998v2.0003h-8.0019v-2.0003h-71.9997v2.0003h-7.9993v-2.0003h-72.0028v2.0003h-7.9992v-2.0003h-68.0011v4.0002h-5.9992v20.0002h4.0014v11.9999h-12.001v-11.9999h3.9983v-20.0002h-5.9992v-4.0002h-68.0007v2.0003h-8v-2.0003h-71.9994v2.0003h-8.0019v-2.0003h-28.001v2.0003h-11.9975v-2.0003h-10.0002v4.0002h-6.0021v20.0002h4.0013v11.9999h-12.001v-11.9999h4.0014v-20.0002h-6.0022v-18.0001h6.0022v-8.0002h-4.0014v-12h12.001v3.9999h13.9992v-1.9999h8.0023v10h-2.0009v12.0003h3.9979v3.9998h28.001v-1.9999h8.0019v1.9999h71.9994v-1.9999h8v1.9999h68.0007v-7.9999h15.9997v7.9999h68.0011v-1.9999h7.9992v1.9999h72.0028v-1.9999h7.9993v1.9999h71.9997v-1.9999h8.0019v1.9999h71.9998v-1.9999h7.9996v1.9999h72.0021v-1.9999h8.0004v1.9999h71.999v-1.9999h7.9992v1.9999h72.0032v-1.9999h7.9992v1.9999h30.0011v-9.9999h15.9989v9.9999h12.001v-7.9999h15.9993v18.0001h-7.9997v10.0001h7.9997v20.0001h-7.9997v24.0003h2.0009v10.0002h-2.0009v70.0005h2.0009v10.0001h-2.0009v70.0008h2.0009v9.9999h-2.0009v22.0003h7.9997v18.0001h-7.9997v30.0003h2.0009v10.0002h-2.0009v70.0005h2.0009v10.0002h-2.0009v70.0007h2.0009v9.9999h-2.0009v70.0008h2.0009v10.0001h-2.0009v70.0006h2.0009v10.0001h-2.0009v82.0009h3.9995v3.9998h14.0003v-3.9998h7.9996v9.9998h-2.0008v14.0003h4.0013v12.0002h-10.0001v-4.0001h-10.0001v6.0001zm13.0007-10.0003h4.9991v-3.9999h2.0009v-14.0003h-2.0009v-1.9999h-14.0003v4.0001h-3.9995v8.0001h7.9997v7.9999zm-852.0098-744.0069h5.0018v-3.9998h3.9983v-12.0003h-2.0001v-2.0001h-13.9992v2.0001h-4.0013v8.0002h6.0021v7.9999zm-947.0076 754.0072h-7.9997v-6.0001h-10.0001v4.0001h-12.001v-12.0002h4.001v-14.0003h-2.0001v-9.9998h7.9992v3.9998h14.0007v-3.9998h1.9982v-82.0009h-1.9982v-10.0001h1.9982v-70.0006h-1.9982v-10.0001h1.9982v-70.0008h-1.9982v-9.9999h1.9982V2776.01h-1.9982v-10.0002h1.9982v-70.0005h-1.9982v-10.0002h1.9982v-30.0003h-3.9979v-18.0001h3.9979v-22.0003h-1.9982v-9.9999h1.9982v-70.0008h-1.9982v-10.0001h1.9982v-70.0005h-1.9982v-10.0002h1.9982v-24.0003h-3.9979v-20.0001h3.9979v-10.0001h-3.9979v-18.0001h15.9993v7.9999h10.0001v-9.9999h14.0011v9.9999h31.9989v-1.9999h7.9993v1.9999h72.0024v-1.9999h8v1.9999h71.9994v-1.9999h8v1.9999h72.002v-1.9999h7.9993v1.9999h72.0001v-1.9999h8.0023v1.9999h71.9994v-1.9999h7.9992v1.9999h72.0024v-1.9999h7.9997v1.9999h68.0014v-7.9999h15.9989v7.9999h68.0011v-1.9999h7.9996v1.9999h71.9994v-1.9999h8.0023v1.9999h28.0006v-3.9998h3.9983v-12.0003h-2.0008v-10h8.0023v1.9999h13.9991v-3.9999h12.0006v12h-4.0009v8.0002h6.0018v18.0001h-6.0018v20.0002h4.0009v11.9999h-12.0006v-11.9999h4.0014v-20.0002h-6.0022v-4.0002h-10.0005v2.0003h-11.9976v-2.0003h-28.0006v2.0003h-8.0023v-2.0003h-71.9994v2.0003h-7.9996v-2.0003h-68.0011v4.0002h-5.9988v20.0002h3.9984v11.9999h-12.0014v-11.9999h4.0017v-20.0002h-5.9988v-4.0002h-68.0014v2.0003h-7.9997v-2.0003h-72.0024v2.0003h-7.9992v-2.0003h-71.9994v2.0003h-8.0023v-2.0003h-72.0001v2.0003h-7.9993v-2.0003h-72.002v2.0003h-8v-2.0003h-71.9994v2.0003h-8v-2.0003h-72.0024v2.0003h-7.9993v-2.0003h-31.9989v4.0002h-14.0011v-4.0002h-10.0001v4.0002h-7.9996v10.0001h7.9996v20.0001h-7.9996v24.0003h2.0004v10.0002h-2.0004v70.0005h2.0004v10.0001h-2.0004v70.0008h2.0004v9.9999h-2.0004v22.0003h7.9996v8h15.9989v-3.9999h10.0001v12.0001h-10.0001v-2.0002h-15.9989v4.0001h-7.9996v30.0003h2.0004v10.0002h-2.0004v70.0005h2.0004v10.0002h-2.0004v70.0007h2.0004v9.9999h-2.0004v70.0008h2.0004v10.0001h-2.0004v70.0006h2.0004v10.0001h-2.0004v82.0009h3.9983v12h-3.9983v8.0001h7.9996v18.0002zm-13.0014-10.0003h5.0017v-7.9999h3.9979v-8.0001h-1.9982v-4.0001h-14.0007v1.9999h-2.0008v14.0003h4.0017v3.9999zm850.0093-744.0069h4.9987v-7.9999h6.0022v-8.0002h-4.0014v-2.0001h-13.9991v2.0001h-2.0001v12.0003h3.9979v3.9998z"/>
  <path fill='#3e3e3e' d="M9404.977 3164.0137h-6.9989v-20.0004h4.0002v-7.9999h-6.001v-18.0002h6.001v-10.0003h-1.9993v-1.9999h-14.0018v4.0001h-12.0002v-4.0001h-13.9992v1.9999h-2.0009v14.0003h4.0017v12.0002h-12.0009v-12.0002h4.0009v-14.0003h-2.0005v-9.9998h7.9997v3.9998h13.9992v-3.9998h12.0002v3.9998h14.0018v-3.9998h7.9993v9.9998h-2.0005v10.0003h5.9995v7.9999h28.0014v-3.9999h9.999v3.9999h14.001v-3.9999h2.0005v-12.0001h-4.0017v-12h4.0017v-24.0003h-2.0005v-10.0001h2.0005v-70.0008h-2.0005v-9.9999h2.0005v-70.0007h-2.0005v-10.0002h2.0005v-70.0005h-2.0005v-10.0002h2.0005v-70.0007h-2.0005v-10h2.0005v-70.0007h-2.0005v-10.0001h2.0005v-46.0003h-2.0005v-10.0002h2.0005v-70.0008h-2.0005v-9.9998h2.0005v-70.0009h-2.0005v-10h2.0005v-70.0005h-2.0005v-10.0003h2.0005v-70.0006h-2.0005v-10.0001h2.0005v-70.0006h-2.0005v-10.0002h2.0005v-56.0004h-2.0005v-10.0002h2.0005v-20.0001h-6.0018v-18.0002h6.0018v-20.0002h-2.0005v-10h2.0005v-56.0005h-2.0005v-10.0002h2.0005v-70.0006h-2.0005v-10.0002h2.0005v-70.0006h-2.0005v-10.0001h2.0005v-70.0007h-2.0005v-9.9999h2.0005v-70.0009h-2.0005v-10h2.0005v-70.0006h-2.0005v-10.0002h2.0005v-46.0004h-2.0005v-10h2.0005v-70.0006h-2.0005v-10.0004h2.0005v-70.0004h-2.0005v-10.0002h2.0005v-70.0008h-2.0005v-9.9998h2.0005v-70.0008h-2.0005v-10.0001h2.0005v-70.0005h-2.0005v-10.0002h2.0005v-56.0005h-2.0005v-10.0001h2.0005v-20h-6.0018v-18.0002h6.0018v-20.0004h-2.0005v-10.0001h2.0005v-56.0006h-2.0005v-9.9998h2.0005v-70.001h-2.0005v-10h2.0005v-70.0005h-2.0005v-10.0002h2.0005v-70.0007h-2.0005v-10.0001h2.0005V641.99h-2.0005v-10.0002h2.0005v-70.0006h-2.0005v-10h2.0005v-46.0006h-2.0005v-9.9998h2.0005v-70.001h-2.0005v-9.9999h2.0005v-70.0006h-2.0005v-10.0002h2.0005v-70.0007h-2.0005v-10h2.0005v-70.0007h-2.0005v-10.0001h2.0005v-50.0004h-2.0005V115.985h2.0005V91.9848h-4.0017V71.9847h4.0017V55.9845h-6.0018v-4h-15.9996v4h-15.9986v-4h-28.0002v2h-8v-2h-72.0024v2h-7.9997v-2h-71.9993v2h-8.0023v-2h-71.9994v2h-7.9997v-2h-72.0024v2h-8v-2h-58.0009v2h-7.9997v-2h-21.9984v4h-16.0016v-4h-21.9988v2h-8.0023v-2h-57.9994v2h-8.0008v-2h-71.9994v2h-7.9992v-2h-72.0028v2h-7.9996v-2h-71.9991v2h-8v-2h-72.0024v2h-7.9992v-2h-71.9998v2h-8.0023v-2h-47.9997v2h-8.0004v-2h-71.9998v2h-7.9992v-2h-72.0024v2h-8v-2h-71.999v2h-8.0001v-2h-72.002v2h-7.9996v-2h-71.9998v2h-8.0023v-2h-57.9983v2h-8.0023v-2h-21.998v4h-16.0023v-4h-21.9981v2h-8.0004v-2h-58.0002v2h-8.0015v-2h-72.0002v2h-8v-2h-72.0012v2h-8.0008v-2h-71.9994v2h-7.9996v-2h-72.0024v2h-7.9993v-2h-71.9994v2h-8v-2h-48.0005v2h-8.0015v-2h-72.0001v2h-7.9997v-2h-72.0016v2h-8.0008v-2h-71.999v2h-8v-2h-72.0024v2h-7.9993v-2h-71.9994v2h-8v-2h-58.0006v2h-8.0004v-2h-21.9999v4h-16.0004v-4h-22.0004v2h-7.9996v-2h-58.0006v2h-8v-2h-72.0024v2h-7.9993v-2h-71.9997v2h-8.0016v-2h-72.0005v2h-7.9992v-2h-72.0017v2h-8.0008v-2h-71.999v2h-7.9996v-2h-48.0005v2h-7.9996v-2h-72.0028v2h-7.9993v-2h-71.9993v2h-8.0023v-2h-72.0002v2h-7.9992v-2h-72.0013v2h-8.0011v-2h-71.999v2h-7.9997v-2h-58.001v2h-7.9992v-2h-22.0015v4h-15.9989v-4h-22.0014v2h-7.9997v-2h-58.0009v2h-7.9993v-2h-72.0024v2h-8v-2h-71.999v2h-7.9997v-2h-72.0027v2h-7.9997v-2h-71.999v2h-8.0015v-2h-72.0005v2h-7.9997v-2h-48.0008v2h-7.9993v-2h-72.0028v2h-7.9992v-2h-71.9994v2h-7.9996v-2h-72.0025v2h-8v-2h-71.999v2h-8.0023v-2h-72.0001v2h-7.9996v-2h-24.002v2h-9.9993v-2h-15.9997v2h-2.0008v14.0001h4.0013v12.0001h-4.0013v24.0002h6.0021v8.0002h11.9984v-4.0001h8.0023v10.0002h-2.0009v12.0001h3.9979v12.0001h-3.9979v14h2.0009v10.0002h-8.0023v-2.0002h-13.9992v2.0002h-12.001v-12.0001h12.001v3.9999h13.9992v-2h2.0001v-14h-3.9983v-12.0001h3.9983v-12.0001h-2.0001v-2.0002h-11.9984v6h-16.0026v-6h-9.9994v6h-15.9996v-20h15.9996v10.0001h9.9994v-8.0002h6.0022V79.9847h-4.0014V67.9846h4.0014V53.9845h-2.0009v-2h-14.0007v4h-15.9996V35.9843h15.9996v10.0002h14.0007v-2.0002h2.0009V31.9842h-6.0022V13.9841h16.0026v18.0001h-6.0021v12.0001h2.0008v2.0002h15.9997v-4.0001h9.9993v4.0001h24.002v-2.0002h7.9996v2.0002h72.0001v-2.0002h8.0023v2.0002h71.999v-2.0002h8v2.0002h72.0025v-2.0002h7.9996v2.0002h71.9994v-2.0002h7.9992v2.0002h72.0028v-2.0002h7.9993v2.0002h48.0008v-2.0002h7.9997v2.0002h72.0005v-2.0002h8.0015v2.0002h71.999v-2.0002h7.9997v2.0002h72.0027v-2.0002h7.9997v2.0002h71.999v-2.0002h8v2.0002h72.0024v-2.0002h7.9993v2.0002h58.0009v-2.0002h7.9997v2.0002h22.0014v-8.0002h15.9989v8.0002h22.0015v-2.0002h7.9992v2.0002h58.001v-2.0002h7.9997v2.0002h71.999v-2.0002h8.0011v2.0002h72.0013v-2.0002h7.9992v2.0002h72.0002v-2.0002h8.0023v2.0002h71.9993v-2.0002h7.9993v2.0002h72.0028v-2.0002h7.9996v2.0002h48.0005v-2.0002h7.9996v2.0002h71.999v-2.0002h8.0008v2.0002h72.0017v-2.0002h7.9992v2.0002h72.0005v-2.0002h8.0016v2.0002h71.9997v-2.0002h7.9993v2.0002h72.0024v-2.0002h8v2.0002h58.0006v-2.0002h7.9996v2.0002h22.0004v-8.0002h16.0004v8.0002h21.9999v-2.0002h8.0004v2.0002h58.0006v-2.0002h8v2.0002h71.9994v-2.0002h7.9993v2.0002h72.0024v-2.0002h8v2.0002h71.999v-2.0002h8.0008v2.0002h72.0016v-2.0002h7.9997v2.0002h72.0001v-2.0002h8.0015v2.0002h48.0005v-2.0002h8v2.0002h71.9994v-2.0002h7.9993v2.0002h72.0024v-2.0002h7.9996v2.0002h71.9994v-2.0002h8.0008v2.0002h72.0012v-2.0002h8v2.0002h72.0002v-2.0002h8.0015v2.0002h58.0002v-2.0002h8.0004v2.0002h21.9981v-8.0002h16.0023v8.0002h21.998v-2.0002h8.0023v2.0002h57.9983v-2.0002h8.0023v2.0002h71.9998v-2.0002h7.9996v2.0002h72.002v-2.0002h8.0001v2.0002h71.999v-2.0002h8v2.0002h72.0024v-2.0002h7.9992v2.0002h71.9998v-2.0002h8.0004v2.0002h47.9997v-2.0002h8.0023v2.0002h71.9998v-2.0002h7.9992v2.0002h72.0024v-2.0002h8v2.0002h71.9991v-2.0002h7.9996v2.0002h72.0028v-2.0002h7.9992v2.0002h71.9994v-2.0002h8.0008v2.0002h57.9994v-2.0002h8.0023v2.0002h21.9988v-8.0002h16.0016v8.0002h21.9984v-2.0002h7.9997v2.0002h58.0009v-2.0002h8v2.0002h72.0024v-2.0002h7.9997v2.0002h71.9994v-2.0002h8.0023v2.0002h71.9993v-2.0002h7.9997v2.0002h72.0024v-2.0002h8v2.0002h28.0002V35.9843h15.9986v10.0002h15.9996v-8.0002h16.0023v18.0002h-6.0025v16.0002h6.0025v20.0001h-6.0025v24.0002h2.0008v10.0002h-2.0008v50.0004h2.0008v10.0001h-2.0008v70.0007h2.0008v10h-2.0008v70.0007h2.0008v10.0002h-2.0008v70.0006h2.0008v9.9999h-2.0008v70.001h2.0008v9.9998h-2.0008v46.0006h2.0008v10h-2.0008v70.0006h2.0008V641.99h-2.0008v70.0006h2.0008v10.0001h-2.0008v70.0007h2.0008v10.0002h-2.0008v70.0005h2.0008v10h-2.0008v70.001h2.0008v9.9998h-2.0008v56.0006h2.0008v10.0001h-2.0008v20.0004h6.0025v18.0002h-6.0025v20h2.0008v10.0001h-2.0008v56.0005h2.0008v10.0002h-2.0008v70.0005h2.0008v10.0001h-2.0008v70.0008h2.0008v9.9998h-2.0008v70.0008h2.0008v10.0002h-2.0008v70.0004h2.0008v10.0004h-2.0008v70.0006h2.0008v10h-2.0008v46.0004h2.0008v10.0002h-2.0008v70.0006h2.0008v10h-2.0008v70.0008h2.0008v10h-2.0008v70.0007h2.0008v10.0001h-2.0008v70.0006h2.0008v10.0002h-2.0008v70.0006h2.0008v10.0002h-2.0008v56.0005h2.0008v10h-2.0008v20.0002h6.0025v18.0001h-6.0025v20.0002h2.0008v10.0001h-2.0008v56.0005h2.0008v10.0001h-2.0008v70.0007h2.0008v10.0001h-2.0008v70.0006h2.0008v10.0003h-2.0008v70.0005h2.0008v10h-2.0008v70.0009h2.0008v9.9998h-2.0008v70.0008h2.0008v10.0002h-2.0008v46.0003h2.0008v10.0001h-2.0008v70.0007h2.0008v10h-2.0008v70.0007h2.0008v10.0002h-2.0008v70.0005h2.0008v10.0002h-2.0008v70.0007h2.0008v9.9999h-2.0008v70.0008h2.0008v10.0001h-2.0008v24.0003h4.0017v12h-4.0017v12.0001h2.0008v3.9999h14.0018v-7.9999h15.9993v18.0002h-15.9993v-6.0001h-14.0018v2h-2.0008v12h6.0025v20.0004h-14.0022v-20.0004h4.0017v-12h-2.0005v-2h-14.001v4.0001h-9.999v-4.0001h-28.0014v6.0001h-5.9995v7.9999h5.9995v20.0004zm-9368.0866 0h-7.0002v-20.0004h4.0001v-12h-2.0001v-2h-14v6.0001H1.8897v-18.0002h16.0005v7.9999h14v-3.9999h2.0001v-12.0001h-4.0001v-12h4.0001v-24.0003h-2.0001v-10.0001h2.0001v-70.0008h-2.0001v-9.9999h2.0001v-70.0007h-2.0001v-10.0002h2.0001v-70.0005h-2.0001v-10.0002h2.0001v-70.0007h-2.0001v-10h2.0001v-70.0007h-2.0001v-10.0001h2.0001v-46.0003h-2.0001v-10.0002h2.0001v-70.0008h-2.0001v-9.9998h2.0001v-70.0009h-2.0001v-10h2.0001v-70.0005h-2.0001v-10.0003h2.0001v-70.0006h-2.0001v-10.0001h2.0001v-70.0006h-2.0001v-10.0002h2.0001v-56.0004h-2.0001v-10.0002h2.0001v-20.0001h-6.0002v-18.0002h6.0002v-20.0002h-2.0001v-10h2.0001v-56.0005h-2.0001v-10.0002h2.0001v-70.0006h-2.0001v-10.0002h2.0001v-70.0006h-2.0001v-10.0001h2.0001v-70.0007h-2.0001v-9.9999h2.0001v-70.0009h-2.0001v-10h2.0001v-70.0006h-2.0001v-10.0002h2.0001v-46.0004h-2.0001v-10h2.0001v-70.0006h-2.0001v-10.0004h2.0001v-70.0004h-2.0001v-10.0002h2.0001v-70.0008h-2.0001v-9.9998h2.0001v-70.0008h-2.0001v-10.0001h2.0001v-70.0005h-2.0001v-10.0002h2.0001v-56.0005h-2.0001v-10.0001h2.0001v-20h-6.0002v-18.0002h6.0002v-20.0004h-2.0001v-10.0001h2.0001v-56.0006h-2.0001v-9.9998h2.0001v-70.001h-2.0001v-10h2.0001v-70.0005h-2.0001v-10.0002h2.0001v-70.0007h-2.0001v-10.0001h2.0001V641.99h-2.0001v-10.0002h2.0001v-70.0006h-2.0001v-10h2.0001v-46.0006h-2.0001v-9.9998h2.0001v-70.001h-2.0001v-9.9999h2.0001v-70.0006h-2.0001v-10.0002h2.0001v-70.0007h-2.0001v-10h2.0001v-70.0007h-2.0001v-10.0001h2.0001v-50.0004h-2.0001V115.985h2.0001V91.9848h-4.0001V71.9847h4.0001V55.9845h-6.0002V37.9843h16.0001v8.0002h16.0005V35.9843h14v10.0002h30.0001v-2.0002h8.0003v2.0002h72.0005v-2.0002h8.0003v2.0002h72.0006v-2.0002h7.9998v2.0002h72.001v-2.0002h7.9998v2.0002h72.0011v-2.0002h7.9996v2.0002h58.0006v-2.0002h8.0004v2.0002h22.0003v-8.0002h15.9997v8.0002h22.0003v-2.0002h8v2.0002h58.0006v-2.0002h8v2.0002h72.0009v-2.0002h8.0004v2.0002h72.0005v-2.0002h7.9997v2.0002h72.0008v-2.0002h8v2.0002h72.001v-2.0002h7.9999v2.0002h72.0006v-2.0002h8.0003v2.0002h48.0001v-2.0002h8.0004v2.0002h72.0005v-2.0002h8.0004v2.0002h72.0005v-2.0002h7.9997v2.0002h72.0008v-2.0002h8.0001v2.0002h72.001v-2.0002h7.9999v2.0002h72.0005v-2.0002h8.0004v2.0002h58.0005v-2.0002h7.9997v2.0002h22.0003v-8.0002h16v8.0002h22.0004v-2.0002h8.0003v2.0002h58.0006v-2.0002h7.9997v2.0002h72.001v-2.0002h7.9999v2.0002h72.0005v-2.0002h8.0004v2.0002h72.0005v-2.0002h8.0003v2.0002h72.0006v-2.0002h7.9998v2.0002h72.001v-2.0002h7.9997v2.0002h48.0008v-2.0002h8.0001v2.0002h72.0006v-2.0002h7.9999v2.0002h72.0006v-2.0002h8.0003v2.0002h72.0005v-2.0002h8.0003v2.0002h72.0006v-2.0002h8.0001v2.0002h72.0007v-2.0002h8.0001v2.0002h58.0003v-2.0002h8.0003v2.0002h22.0002v-8.0002h16.0001v8.0002h22.0003v-2.0002h7.9997v2.0002h58.001v-2.0002h7.9999v2.0002h72.0006v-2.0002h8.0002v2.0002h72.0006v-2.0002h8.0002v2.0002h72.0007v-2.0002h7.9998v2.0002h72.0009v-2.0002h7.9999v2.0002h72.0006v-2.0002h8.0003v2.0002h48.0005v-2.0002h8v2.0002h72.0005v-2.0002h8.0003v2.0002h72.0006v-2.0002h8.0001v2.0002h72.0007v-2.0002h7.9998v2.0002h72.0008v-2.0002h8.0003v2.0002h72.0006v-2.0002h8.0001v2.0002h58.0006v-2.0002h8v2.0002h22.0002v-8.0002h16v8.0002h22.0003v-2.0002h8.0001v2.0002h58.0004v-2.0002h7.9992v2.0002h72.0024v-2.0002h8.0001v2.0002h71.999v-2.0002h7.9996v2.0002h72.0024v-2.0002h8v2.0002h71.999v-2.0002h8.0023v2.0002h72.0002v-2.0002h7.9992v2.0002h48.0009v-2.0002h7.9992v2.0002h72.0024v-2.0002h7.9997v2.0002h71.9994v-2.0002h7.9996v2.0002h72.0024v-2.0002h7.9996v2.0002h71.9994v-2.0002h8.0019v2.0002h72.0002v-2.0002h7.9996v2.0002h25.9994v-4.0001h10.0001v4.0001h14.0018v-2.0002h2.0009V31.9842h-6.0022V13.9841h16.0023v18.0001h-6.0018v12.0001h2.0001v2.0002h14.0011V35.9843h13.9995v20.0002h-13.9995v-4h-14.0011v2h-2.0001v14.0001h4.0009v12.0001h-4.0009v24.0002h6.0018v8.0002h9.9994V101.985h13.9995v20h-13.9995v-6h-9.9994v6h-16.0023v-6h-11.9983v2.0002h-2.0001v12.0001h3.9979v12.0001h-3.9979v14h2.0001v2h13.9991v-3.9999h12.0006v12.0001h-12.0006v-2.0002h-13.9991v2.0002h-8.0023v-10.0002h2.0008v-14h-3.9983v-12.0001h3.9983v-12.0001h-2.0008V107.985h8.0023v4.0001h11.9983v-8.0002h6.0022V79.9847h-4.0014V67.9846h4.0014V53.9845h-2.0009v-2h-14.0018v2h-10.0001v-2h-25.9994v2h-7.9996v-2h-72.0002v2h-8.0019v-2h-71.9994v2h-7.9996v-2H4415.93v2h-7.9996v-2h-71.9994v2h-7.9997v-2h-72.0024v2h-7.9992v-2h-48.0009v2h-7.9992v-2h-72.0002v2h-8.0023v-2h-71.999v2h-8v-2h-72.0024v2h-7.9996v-2h-71.999v2h-8.0001v-2h-72.0024v2h-7.9992v-2h-58.0004v2h-8.0001v-2h-22.0003v4h-16v-4h-22.0002v2h-8v-2h-58.0006v2h-8.0001v-2h-72.0006v2h-8.0003v-2h-72.0008v2h-7.9998v-2h-72.0007v2h-8.0001v-2h-72.0006v2h-8.0003v-2H3199.92v2h-8v-2h-48.0005v2h-8.0003v-2h-72.0006v2h-7.9999v-2h-72.0009v2h-7.9998v-2h-72.0007v2h-8.0002v-2h-72.0006v2h-8.0002v-2h-72.0006v2h-7.9999v-2h-58.001v2h-7.9997v-2h-22.0003v4h-16.0001v-4h-22.0002v2h-8.0004v-2h-58.0002v2h-8.0001v-2h-72.0007v2h-8.0001v-2h-72.0006v2h-8.0003v-2h-72.0005v2h-8.0003v-2h-72.0006v2h-7.9999v-2h-72.0006v2h-8.0001v-2h-48.0008v2h-7.9997v-2h-72.001v2h-7.9998v-2h-72.0006v2h-8.0003v-2h-72.0005v2h-8.0004v-2h-72.0005v2h-7.9999v-2h-72.001v2h-7.9997v-2h-58.0006v2h-8.0003v-2h-22.0004v4h-16v-4h-22.0003v2h-7.9997v-2h-58.0005v2h-8.0004v-2h-72.0005v2h-7.9999v-2h-72.001v2h-8.0001v-2h-72.0008v2h-7.9997v-2h-72.0005v2h-8.0004v-2h-72.0005v2h-8.0004v-2h-48.0001v2h-8.0003v-2h-72.0006v2h-7.9999v-2h-72.001v2h-8v-2h-72.0008v2h-7.9997v-2H711.897v2h-8.0004v-2h-72.0009v2h-8v-2h-58.0006v2h-8v-2h-22.0003v4h-15.9997v-4h-22.0003v2h-8.0004v-2h-58.0006v2h-7.9996v-2h-72.0011v2h-7.9998v-2h-72.001v2h-7.9998v-2h-72.0006v2h-8.0003v-2h-72.0005v2h-8.0003v-2H73.8907v4h-14v-4H43.8902v4h-5.9998v16.0002h5.9998v20.0001h-5.9998v24.0002h2.0001v10.0002h-2.0001v50.0004h2.0001v10.0001h-2.0001v70.0007h2.0001v10h-2.0001v70.0007h2.0001v10.0002h-2.0001v70.0006h2.0001v9.9999h-2.0001v70.001h2.0001v9.9998h-2.0001v46.0006h2.0001v10h-2.0001v70.0006h2.0001V641.99h-2.0001v70.0006h2.0001v10.0001h-2.0001v70.0007h2.0001v10.0002h-2.0001v70.0005h2.0001v10h-2.0001v70.001h2.0001v9.9998h-2.0001v56.0006h2.0001v10.0001h-2.0001v20.0004h5.9998v18.0002h-5.9998v20h2.0001v10.0001h-2.0001v56.0005h2.0001v10.0002h-2.0001v70.0005h2.0001v10.0001h-2.0001v70.0008h2.0001v9.9998h-2.0001v70.0008h2.0001v10.0002h-2.0001v70.0004h2.0001v10.0004h-2.0001v70.0006h2.0001v10h-2.0001v46.0004h2.0001v10.0002h-2.0001v70.0006h2.0001v10h-2.0001v70.0009h2.0001v9.9999h-2.0001v70.0007h2.0001v10.0001h-2.0001v70.0006h2.0001v10.0002h-2.0001v70.0006h2.0001v10.0002h-2.0001v56.0005h2.0001v10h-2.0001v20.0002h5.9998v18.0002h-5.9998v20.0001h2.0001v10.0002h-2.0001v56.0004h2.0001v10.0002h-2.0001v70.0006h2.0001v10.0001h-2.0001v70.0006h2.0001v10.0003h-2.0001v70.0005h2.0001v10h-2.0001v70.0009h2.0001v9.9998h-2.0001v70.0008h2.0001v10.0002h-2.0001v46.0003h2.0001v10.0001h-2.0001v70.0007h2.0001v10h-2.0001v70.0007h2.0001v10.0002h-2.0001v70.0005h2.0001v10.0002h-2.0001v70.0007h2.0001v9.9999h-2.0001v70.0008h2.0001v10.0001h-2.0001v24.0003h4.0001v12h-4.0001v12.0001h2.0001v3.9999h14v-3.9999h10.0003v3.9999h28.0001v-7.9999h5.9997v-10.0003H95.891v-9.9998h7.9998v3.9998h14.0004v-3.9998h10v3.9998h16v-3.9998h8.0003v9.9998h-2.0001v14.0003h4.0001v12.0002h-12.0003v-12.0002h4.0001v-14.0003h-2.0001v-1.9999h-16v4.0001h-10v-4.0001h-14.0004v1.9999h-2v10.0003h6.0001v18.0002h-6.0001v7.9999h6.0001v20.0004h-14v-20.0004h3.9997v-7.9999h-5.9997v-6.0001H63.8908v4.0001H53.8905v-4.0001h-14v2h-2.0001v12h5.9998v20.0004zm7047.0665 498.0042h-8.0019v-18.0001h6.0022v-7.9999h-4.0013v-12.0003h4.0013v-90.0008h-2.0009v-9.9999h2.0009v-70.0006h-2.0009v-10.0001h2.0009v-70.0006h-2.0009v-10.0001h2.0009v-70.0007h-2.0009v-9.9999h2.0009v-70.0008h-2.0009v-10.0002h2.0009v-70.0005h-2.0009v-10.0002h2.0009v-70.0007h-2.0009v-10h2.0009v-70.0007h-2.0009v-10.0001h2.0009v-70.0006h-2.0009v-10.0001h2.0009v-70.0007h-2.0009v-10.0001h2.0009v-90.0007h-4.0013v-12.0001h4.0013v-10.0003h-6.0022v-18.0001h16.0023v8.0001h10.0001v-4h11.998v12.0001h-3.9983v12.0002h2.0004v9.9999h-8.0026v-2h-13.9981v4.0002h-4.0017v90.0007h2.0009v10.0001h-2.0009v70.0007h2.0009v10.0001h-2.0009v70.0006h2.0009v10.0001h-2.0009v70.0007h2.0009v10h-2.0009v70.0007h2.0009v10.0002h-2.0009v70.0005h2.0009v10.0002h-2.0009v70.0008h2.0009v9.9999h-2.0009v70.0007h2.0009v10.0001h-2.0009v70.0006h2.0009v10.0001h-2.0009v70.0006h2.0009v9.9999h-2.0009v90.0008h4.0017v4.0001h13.9981v-2.0001h8.0026v10.0003h-2.0004v12h3.9983v12h-11.998v-1.9998h-10.0001v3.9998zm12.9991-9.9999h5.0014v-4.0001h3.9983v-12h-2.0008v-2h-13.9981v2h-4.0017v7.9999h6.0022v8.0002zm0-946.0088h6.9989v-3.9998h2.0008v-12.0002h-3.9983v-4.0001h-10.0001v6h-6.0022v10.0003h4.0017v3.9998zm-4677.0433 956.0087h-8v-3.9998h-10.0001v1.9998h-12.0001v-12h4.0001v-12h-2.0005v-10.0003h8.0004v2.0001h14v-4.0001h4.0002v-90.0008h-2.0001v-9.9999h2.0001v-70.0006h-2.0001v-10.0001h2.0001v-70.0006h-2.0001v-10.0001h2.0001v-70.0007h-2.0001v-9.9999h2.0001v-70.0008h-2.0001v-10.0002h2.0001v-70.0005h-2.0001v-10.0002h2.0001v-70.0007h-2.0001v-10h2.0001v-70.0007h-2.0001v-10.0001h2.0001v-70.0006h-2.0001v-10.0001h2.0001v-70.0007h-2.0001v-10.0001h2.0001v-90.0007h-4.0002v-4.0002h-14v2h-8.0004v-9.9999h2.0005v-12.0002h-4.0001v-12.0001h12.0001v4h10.0001v-8.0001h15.9997v18.0001h-5.9996v10.0003h4v12.0001h-4v90.0007h2v10.0001h-2v70.0007h2v10.0001h-2v70.0006h2v10.0001h-2v70.0007h2v10h-2v70.0007h2v10.0002h-2v70.0005h2v10.0002h-2v70.0008h2v9.9999h-2v70.0007h2v10.0001h-2v70.0006h2v10.0001h-2v70.0006h2v9.9999h-2v90.0008h4v12.0003h-4v7.9999h5.9996v18.0001zm-13.0001-9.9999h5.0001v-8.0002h6v-7.9999h-4.0002v-2h-14v2h-2.0001v12h4.0002v4.0001zm0-946.0088h6.9999v-3.9998h4.0002v-10.0003h-6v-6h-10.0001v4.0001h-4.0002v12.0002h2.0001v3.9998zm2387.0235 1244.0124h-6.0022v-12.0006h4.0014v-10.0005h-6.0022v-17.9998h6.0022v-14.0018h-4.0014v-11.9975h12.001v11.9975h-4.0013v14.0018h6.0021v7.9997h10.0002v-4.0013h11.9975v4.0013h28.001v-2.0009h8.0019v2.0009h71.9994v-2.0009h8v2.0009h68.0007v-7.9997h5.9992v-14.0018h-3.9983v-11.9975h12.001v11.9975h-4.0014v14.0018h5.9992v7.9997h68.0011v-2.0009h7.9992v2.0009h72.0028v-2.0009h7.9993v2.0009h71.9997v-2.0009h8.0019v2.0009h71.9998v-2.0009h7.9996v2.0009h72.0021v-2.0009h8.0004v2.0009h71.999v-2.0009h7.9992v2.0009h72.0032v-2.0009h7.9992v2.0009h31.9997v-10.0001h16.0012v10.0001h10.0001v-7.9997h3.9979v-10.0001h-3.9979V3880.02h3.9979v-61.9992h-1.9978v-10.0002h1.9978v-70.002h-1.9978v-9.9999h1.9978v-70.0006h-1.9978v-10.0002h1.9978v-70.0005h-1.9978v-10.0003h1.9978v-70.0006h-1.9978v-10h1.9978v-44.0003h-3.9979v-3.9999h-17.9997v1.9999h-12.001v-12.0002h12.001v4.0002h17.9997v-8.0002h3.9979v-24.0002h-1.9978v-10.0001h1.9978v-70.0006h-1.9978v-10.0001h1.9978v-72.0007h-1.9978v-12.0001h1.9978v-10h-3.9979v-18.0002h15.9993v8.0001h10.0001v-4.0002h10.0001v12.0002h-4.0013v14.0003h2.0008v9.9999h-7.9996v-2h-14.0003v2h-3.9995v72.0007h2.0009v10.0001h-2.0009v70.0006h2.0009v10.0001h-2.0009v24.0002h7.9997v18.0002h-7.9997v44.0003h2.0009v10h-2.0009v70.0006h2.0009v10.0003h-2.0009v70.0005h2.0009v10.0002h-2.0009v70.0006h2.0009v9.9999h-2.0009v70.002h2.0009v10.0002h-2.0009v61.9992h7.9997v20.0006h-7.9997v10.0001h7.9997v17.9998h-15.9993v-4.0017h-10.0001v4.0017h-16.0012v-4.0017h-31.9997v2.0012h-7.9992v-2.0012h-72.0032v2.0012h-7.9992v-2.0012h-71.999v2.0012h-8.0004v-2.0012h-72.0021v2.0012h-7.9996v-2.0012h-71.9998v2.0012h-8.0019v-2.0012h-71.9997v2.0012h-7.9993v-2.0012h-72.0028v2.0012h-7.9992v-2.0012h-68.0011v4.0017h-15.9997v-4.0017h-68.0007v2.0012h-8v-2.0012h-71.9994v2.0012h-8.0019v-2.0012h-28.001v2.0012h-3.9979v14.0015h2.0009v10.0001h-8.0023v-2.0005h-13.9992v2.0005zm12.998-8.0004h7v-1.9997h2.0001V3926.02h-3.9983v-2.0012h-10.0002v4.0017h-6.0021v10.0005h4.0013v4.0002zm850.0097-710.0069h6.9992v-1.9999h2.0009v-14.0003h-2.0009v-2h-10.0001v4.0001h-7.9997v10h3.9995v4.0001zm-971.01 718.0073h-4.0013v-10.0001h2.0008V3926.02h-3.9983v-2.0012h-28.0006v2.0012h-8.0023v-2.0012h-71.9994v2.0012h-7.9996v-2.0012h-68.0011v4.0017h-15.9989v-4.0017h-68.0014v2.0012h-7.9997v-2.0012h-72.0024v2.0012h-7.9992v-2.0012h-71.9994v2.0012h-8.0023v-2.0012h-72.0001v2.0012h-7.9993v-2.0012h-72.002v2.0012h-8v-2.0012h-71.9994v2.0012h-8v-2.0012h-72.0024v2.0012h-7.9993v-2.0012h-31.9989v4.0017h-14.0011v-4.0017h-10.0001v4.0017h-15.9993v-17.9998h3.9979v-10.0001h-3.9979V3880.02h3.9979v-61.9992h-1.9982v-10.0002h1.9982v-70.002h-1.9982v-9.9999h1.9982v-70.0006h-1.9982v-10.0002h1.9982v-70.0005h-1.9982v-10.0003h1.9982v-70.0006h-1.9982v-10h1.9982v-44.0003h-3.9979v-18.0002h3.9979v-24.0002h-1.9982v-10.0001h1.9982v-70.0006h-1.9982v-10.0001h1.9982v-72.0007h-1.9982v-2h-14.0007v2h-7.9992v-9.9999h2.0001v-14.0003h-4.001v-12.0002h12.001v4.0002h10.0001v-8.0001h15.9993v18.0002h-7.9996v10h3.9983v12.0001h-3.9983v72.0007h2.0004v10.0001h-2.0004v70.0006h2.0004v10.0001h-2.0004v24.0002h7.9996v8.0002h15.9989v-4.0002h10.0001v12.0002h-10.0001v-1.9999h-15.9989v3.9999h-7.9996v44.0003h2.0004v10h-2.0004v70.0006h2.0004v10.0003h-2.0004v70.0005h2.0004v10.0002h-2.0004v70.0006h2.0004v9.9999h-2.0004v70.002h2.0004v10.0002h-2.0004v61.9992h7.9996v20.0006h-7.9996v10.0001h7.9996v7.9997h10.0001v-10.0001h14.0011v10.0001h31.9989v-2.0009h7.9993v2.0009h72.0024v-2.0009h8v2.0009h71.9994v-2.0009h8v2.0009h72.002v-2.0009h7.9993v2.0009h72.0001v-2.0009h8.0023v2.0009h71.9994v-2.0009h7.9992v2.0009h72.0024v-2.0009h7.9997v2.0009h68.0014v-7.9997h5.9988v-14.0018h-4.0017v-11.9975h12.0014v11.9975h-3.9984v14.0018h5.9988v7.9997h68.0011v-2.0009h7.9996v2.0009h71.9994v-2.0009h8.0023v2.0009h28.0006v-4.0013h11.9976v4.0013h10.0005v-7.9997h6.0022v-14.0018h-4.0014v-11.9975h12.0006v11.9975h-4.0009v14.0018h6.0018v17.9998h-6.0018v10.0005h4.0009v12.0006h-12.0006v-2.0005h-13.9991v2.0005zm11.0006-8.0004h6.9995v-4.0002h4.0014v-10.0005h-6.0022v-4.0017h-10.0005v2.0012h-3.9979v14.0015h2.0001v1.9997zm-850.0093-710.0069h7.0014v-4.0001h1.9982v-10h-3.9979v-4.0001h-10.0001v2h-4.0017v14.0003h2.0008v1.9999zm2003.0184 1582.0154h-5.9992v-12.001h4.0017v-10.0001h-6.0022v-18.0001h16.0027v7.9996h9.9994v-3.9987h9.9989v3.9987h26.0013v-2.0005h7.9997v2.0005h71.999v-2.0005h8.0011v2.0005h72.0013v-2.0005h7.9992v2.0005h72.0002v-2.0005h8.0023v2.0005h71.9993v-2.0005h7.9993v2.0005h72.0028v-2.0005h7.9996v2.0005h71.999v-2.0005h7.9997v2.0005h72.0028v-2.0005h7.9992v2.0005h71.9994v-2.0005h8.0019v2.0005h72.0002v-2.0005h7.9996v2.0005h72.0016v-2.0005h8.0008v2.0005h71.999v-2.0005h7.9993v2.0005h72.0028v-2.0005h8v2.0005h71.999v-2.0005h7.9992v2.0005h72.0028v-2.0005h7.9997v2.0005h23.9996v-3.9987h4.0006v-9.9997h-2.0008v-10.0001h7.9992v1.9974h12.0014v-3.9983h4.0013v-15.9996h-2.0009v-9.9998h2.0009v-70.0019h-2.0009v-10.0005h2.0009v-70.0015h-2.0009v-10.0002h2.0009v-69.9989h-2.0009v-10.0001h2.0009v-70.0015h-2.0009v-10.0005h2.0009v-69.9986h-2.0009v-10.0004h2.0009v-70.0016h-2.0009v-10.0001h2.0009v-70.0016h-2.0009v-9.9986h2.0009v-70.0008h-2.0009v-10.0001h2.0009v-70.0023h-2.0009V4010.02h2.0009v-69.9985h-2.0009v-10.0001h2.0009v-70.002h-2.0009v-10.0005h2.0009v-81.9998h-4.0013v-12.0003h4.0013v-9.9999h-6.0022v-18.0002h16.0023v7.9999h10.0001v-4.0001h11.998v12.0004h-3.9983v14h2.0004v10.0002h-8.0026v-2h-13.9981v2h-4.0017v81.9998h2.0009v10.0005h-2.0009v70.002h2.0009v10.0001h-2.0009v69.9985h2.0009v10.0001h-2.0009v70.0023h2.0009v10.0001h-2.0009v70.0008h2.0009v9.9986h-2.0009v70.0016h2.0009v10.0001h-2.0009v70.0016h2.0009v10.0004h-2.0009v69.9986h2.0009v10.0005h-2.0009v70.0015h2.0009v10.0001h-2.0009v69.9989h2.0009v10.0002h-2.0009v70.0015h2.0009v10.0005h-2.0009v70.0019h2.0009v9.9998h-2.0009v15.9996h4.0017v12.001h-4.0017v5.9988h6.0022v18.0001h-16.0023v-4.0009h-7.9996v2.0001h-11.9999v-2.0001h-23.9996v2.0001h-7.9997v-2.0001h-72.0028v2.0001h-7.9992v-2.0001h-71.999v2.0001h-8v-2.0001h-72.0028v2.0001h-7.9993v-2.0001h-71.999v2.0001h-8.0008v-2.0001h-72.0016v2.0001h-7.9996v-2.0001h-72.0002v2.0001h-8.0019v-2.0001h-71.9994v2.0001h-7.9992v-2.0001h-72.0028v2.0001h-7.9997v-2.0001h-71.999v2.0001h-7.9996v-2.0001h-72.0028v2.0001h-7.9993v-2.0001h-71.9993v2.0001h-8.0023v-2.0001h-72.0002v2.0001h-7.9992v-2.0001h-72.0013v2.0001h-8.0011v-2.0001h-71.999v2.0001h-7.9997v-2.0001h-26.0013v2.0001h-3.9994v14.0014h2.0008v10.0005h-8.0003v-2.0009h-12.0003v2.0009zm12.0005-7.9996h6.0019v-2.0009h1.9978v-14.0014h-1.9978v-2.0001h-9.9994v4.0009h-6.0026v10.0001h4.0017v4.0014zm1210.0131-24.002h3.9979v-7.9996h6.0022v-5.9988h-4.0013v-2.0005h-12.0014v2.0005h-1.9974v9.9997h3.9983v3.9987zm24.9989-1022.0092h6.9989v-2h2.0008v-14h-3.9983v-2.0001h-10.0001v4.0001h-6.0022v9.9999h4.0017v4.0001zM3736.925 4814.0297h-5v-12.001h4.0001v-10.0001h-6v-18.0001h16v7.9996h8.0001v-3.9987h12.0002v3.9987h21.9986v-2.0005h8.0027v2.0005h71.9994v-2.0005h7.9992v2.0005h72.0025v-2.0005h8v2.0005h71.999v-2.0005h7.9996v2.0005h72.0024v-2.0005h8v2.0005h71.999v-2.0005h8.0019v2.0005h72.0002v-2.0005h7.9996v2.0005h72.002v-2.0005h8.0001v2.0005h71.9993v-2.0005h7.9997v2.0005h72.0024v-2.0005h7.9996v2.0005h71.9994v-2.0005h7.9993v2.0005h72.0024v-2.0005h7.9996v2.0005h68.0015v-7.9996h5.9988v-15.9989h-2.0005v-10.0005h8.0027v10.0005h-2.0009v15.9989h5.9992v7.9996h68.0007v-2.0005h8v2.0005h72.0024v-2.0005h7.9996v2.0005h71.9994v-2.0005h7.9993v2.0005h72.0027v-2.0005h7.9997v2.0005h71.9994v-2.0005h8.0007v2.0005h72.0013v-2.0005h7.9993v2.0005h72.0009v-2.0005h8.0015v2.0005h71.999v-2.0005h7.9996v2.0005h72.0028v-2.0005h7.9997v2.0005h71.999v-2.0005h7.9996v2.0005h72.0028v-2.0005h7.9996v2.0005h71.9994v-2.0005h8.0019v2.0005h21.9985v-3.9987h10.0001v3.9987h10.0005v-7.9996h15.9992v18.0001h-5.9987v10.0001h4.0013v12.001h-12.001v-2.0009h-14.0014v2.0009h-8v-10.0005h2.0008v-14.0014h-2.0008v-2.0001h-21.9985v2.0001h-8.0019v-2.0001h-71.9994v2.0001h-7.9996v-2.0001h-72.0028v2.0001h-7.9996v-2.0001h-71.999v2.0001h-7.9997v-2.0001h-72.0028v2.0001h-7.9996v-2.0001h-71.999v2.0001h-8.0015v-2.0001h-72.0009v2.0001h-7.9993v-2.0001h-72.0013v2.0001h-8.0007v-2.0001h-71.9994v2.0001h-7.9997v-2.0001h-72.0027v2.0001h-7.9993v-2.0001h-71.9994v2.0001h-7.9996v-2.0001h-72.0024v2.0001h-8v-2.0001h-68.0007v4.0009h-15.9993v-4.0009h-68.0015v2.0001h-7.9996v-2.0001h-72.0024v2.0001h-7.9993v-2.0001h-71.9994v2.0001h-7.9996v-2.0001h-72.0024v2.0001h-7.9996v-2.0001h-71.9994v2.0001h-8v-2.0001h-72.0021v2.0001h-7.9996v-2.0001h-72.0001v2.0001h-8.002v-2.0001h-71.999v2.0001h-8v-2.0001h-72.0024v2.0001h-7.9996v-2.0001h-71.999v2.0001h-8v-2.0001h-72.0025v2.0001h-7.9992v-2.0001h-71.9994v2.0001h-8.0027v-2.0001h-21.9986v2.0001h-4.0001v14.0014h1.9999v10.0005h-8v-2.0009h-14.0001v2.0009zm12.0001-7.9996h7.0001v-2.0009h2v-14.0014h-4v-2.0001h-8.0001v4.0009h-6.0001v10.0001h2.0001v4.0014zm2004.02 0h6.9992v-4.0014h3.9995v-10.0001h-6.0003v-4.0009h-10.0005v2.0001h-3.9976v14.0014h1.9975v2.0009zm-2123.0211 7.9996h-4.0001v-10.0005h2.0001v-14.0014h-2.0001v-2.0001h-26.0001v2.0001h-8.0001v-2.0001h-72.0006v2.0001h-8.0003v-2.0001h-72.0008v2.0001h-7.9998v-2.0001h-72.0007v2.0001h-8.0001v-2.0001h-72.0006v2.0001h-8.0003v-2.0001H3199.92v2.0001h-8v-2.0001h-72.0008v2.0001h-8v-2.0001h-72.001v2.0001h-7.9997v-2.0001h-72.0007v2.0001h-8.0001v-2.0001h-72.0007v2.0001h-8.0002v-2.0001h-72.0005v2.0001h-8.0004v-2.0001h-72.0005v2.0001h-7.9999v-2.0001h-72.0006v2.0001h-8.0002v-2.0001h-72.001v2.0001h-7.9998v-2.0001h-72.0005v2.0001h-8.0004v-2.0001h-24v2.0001h-12.0002v-2.0001h-8.0004v4.0009h-15.9997v-18.0001h6v-5.9988h-4.0002v-12.001h4.0002v-15.9996h-2.0001v-9.9998h2.0001v-70.0019h-2.0001v-10.0005h2.0001v-70.0015h-2.0001v-10.0002h2.0001v-69.9989h-2.0001v-10.0001h2.0001v-70.0015h-2.0001v-10.0005h2.0001v-69.9986h-2.0001v-10.0004h2.0001v-70.0016h-2.0001v-10.0001h2.0001v-70.0016h-2.0001v-9.9986h2.0001v-70.0008h-2.0001v-10.0001h2.0001v-70.0023h-2.0001V4010.02h2.0001v-69.9985h-2.0001v-10.0001h2.0001v-70.002h-2.0001v-10.0005h2.0001v-81.9998h-4.0002v-2h-14v2h-8.0004v-10.0002h2.0005v-14h-4.0001v-12.0004h12.0001v4.0001h10.0001v-7.9999h15.9997v18.0002h-5.9996v9.9999h4v12.0003h-4v81.9998h2v10.0005h-2v70.002h2v10.0001h-2v69.9985h2v10.0001h-2v70.0023h2v10.0001h-2v70.0008h2v9.9986h-2v70.0016h2v10.0001h-2v70.0016h2v10.0004h-2v69.9986h2v10.0005h-2v70.0015h2v10.0001h-2v69.9989h2v10.0002h-2v70.0015h2v10.0005h-2v70.0019h2v9.9998h-2v15.9996h4v3.9983h12.0001v-1.9974h7.9997v10.0001h-1.9996v9.9997h4v3.9987h24v-2.0005h8.0004v2.0005h72.0005v-2.0005h7.9998v2.0005h72.001v-2.0005h8.0002v2.0005h72.0006v-2.0005h7.9999v2.0005h72.0005v-2.0005h8.0004v2.0005h72.0005v-2.0005h8.0002v2.0005h72.0007v-2.0005h8.0001v2.0005h72.0007v-2.0005h7.9997v2.0005h72.001v-2.0005h8v2.0005h72.0008v-2.0005h8v2.0005h72.0005v-2.0005h8.0003v2.0005h72.0006v-2.0005h8.0001v2.0005h72.0007v-2.0005h7.9998v2.0005h72.0008v-2.0005h8.0003v2.0005h72.0006v-2.0005h8.0001v2.0005h26.0001v-3.9987h10.0002v3.9987h10.0001v-7.9996h16.0001v18.0001h-6.0001v10.0001h4.0002v12.001h-12.0003v-2.0009h-14v2.0009zm11.0001-7.9996h7v-4.0014h4.0002v-10.0001h-6.0001v-4.0009h-10.0001v2.0001h-4.0001v14.0014h2.0001v2.0009zm-1209.0115-24.002h4.0002v-3.9987h4.0001v-9.9997h-2v-2.0005h-12.0001v2.0005h-4v5.9988h5.9996v7.9996zm-25-1022.0092h6.9999v-4.0001h4.0002v-9.9999h-6v-4.0001h-10.0001v2.0001h-4.0002v14h2.0001v2z"/>
  <path fill='#3e3e3e' d="M4793.9361 6322.0426h-8.003v-17.9997h6.0022v-10.0001h-2.0009v-2.0009h-12.0006v6.0011h-15.9993v-19.9991h15.9993v10.0001h12.0006v-4.0017h2.0009v-14.0007h-4.0014v-11.9983h4.0014v-26.0021h-6.0022v-3.999h-7.9993v3.999h-15.9993v-19.9979h15.9993v9.9997h7.9993v-8.0026h16.0026v8.0026h11.9984v-2.0005h2.0001v-12.0009h-3.9983v-12.001h3.9983v-13.998h-2.0001v-2.0009h-13.9992v4.0006h-12.001v-12.0002h12.001v3.9979h13.9992v-3.9979h8.0023v10.0005h-2.0009v13.998h3.9979v12.001h-3.9979v12.0009h2.0009v10.0005h-8.0023v-2.0008h-11.9984v3.999h-6.0021v26.0021h4.0013v11.9983h-4.0013v14.0007h2.0008v4.0017h15.9997v-4.0017h9.9993v4.0017h24.002v-4.0017h7.9996v4.0017h72.0001v-4.0017h8.0023v4.0017h71.999v-4.0017h8v4.0017h72.0025v-4.0017h7.9996v4.0017h71.9994v-4.0017h7.9992v4.0017h72.0028v-4.0017h7.9993v4.0017h48.0008v-4.0017h7.9997v4.0017h72.0005v-4.0017h8.0015v4.0017h71.999v-4.0017h7.9997v4.0017h72.0027v-4.0017h7.9997v4.0017h71.999v-4.0017h8v4.0017h72.0024v-4.0017h7.9993v4.0017h58.0009v-4.0017h7.9997v4.0017h22.0014v-8.0034h15.9989v8.0034h22.0015v-4.0017h7.9992v4.0017h58.001v-4.0017h7.9997v4.0017h71.999v-4.0017h8.0011v4.0017h72.0013v-4.0017h7.9992v4.0017h72.0002v-4.0017h8.0023v4.0017h71.9993v-4.0017h7.9993v4.0017h72.0028v-4.0017h7.9996v4.0017h48.0005v-4.0017h7.9996v4.0017h71.999v-4.0017h8.0008v4.0017h72.0017v-4.0017h7.9992v4.0017h72.0005v-4.0017h8.0016v4.0017h71.9997v-4.0017h7.9993v4.0017h72.0024v-4.0017h8v4.0017h58.0006v-4.0017h7.9996v4.0017h22.0004v-8.0034h16.0004v8.0034h21.9999v-4.0017h8.0004v4.0017h58.0006v-4.0017h8v4.0017h71.9994v-4.0017h7.9993v4.0017h72.0024v-4.0017h8v4.0017h71.999v-4.0017h8.0008v4.0017h72.0016v-4.0017h7.9997v4.0017h72.0001v-4.0017h8.0015v4.0017h48.0005v-4.0017h8v4.0017h71.9994v-4.0017h7.9993v4.0017h72.0024v-4.0017h7.9996v4.0017h71.9994v-4.0017h8.0008v4.0017h72.0012v-4.0017h8v4.0017h72.0002v-4.0017h8.0015v4.0017h58.0002v-4.0017h8.0004v4.0017h21.9981v-8.0034h16.0023v8.0034h21.998v-4.0017h8.0023v4.0017h57.9983v-4.0017h8.0023v4.0017h71.9998v-4.0017h7.9996v4.0017h72.002v-4.0017h8.0001v4.0017h71.999v-4.0017h8v4.0017h72.0024v-4.0017h7.9992v4.0017h71.9998v-4.0017h8.0004v4.0017h47.9997v-4.0017h8.0023v4.0017h71.9998v-4.0017h7.9992v4.0017h72.0024v-4.0017h8v4.0017h71.9991v-4.0017h7.9996v4.0017h72.0028v-4.0017h7.9992v4.0017h71.9994v-4.0017h8.0008v4.0017h57.9994v-4.0017h8.0023v4.0017h21.9988v-8.0034h16.0016v8.0034h21.9984v-4.0017h7.9997v4.0017h58.0009v-4.0017h8v4.0017h72.0024v-4.0017h7.9997v4.0017h71.9994v-4.0017h8.0023v4.0017h71.9993v-4.0017h7.9997v4.0017h72.0024v-4.0017h8v4.0017h28.0002v-10.0001h15.9986v10.0001h15.9996v-8.0034h6.0018v-11.9972h-4.0017v-20.0006h4.0017v-25.9998h-2.0005v-9.9997h2.0005v-50.0013h-2.0005v-10.0005h2.0005v-70.002h-2.0005v-10.0001h2.0005v-69.9985h-2.0005v-10.0005h2.0005v-70.0019h-2.0005v-10.0002h2.0005v-69.9992h-2.0005v-9.9994h2.0005v-46.0034h-2.0005v-9.999h2.0005v-69.9996h-2.0005v-10.0005h2.0005v-70.002h-2.0005v-9.9997h2.0005v-69.9989h-2.0005v-10.0005h2.0005v-70.0019h-2.0005v-10.0001h2.0005v-69.9993h-2.0005v-9.9994h2.0005v-56.0024h-2.0005v-9.9986h2.0005v-20.0002h-6.0018v-18.0005h6.0018v-19.9999h-2.0005v-10.0001h2.0005v-56.0001h-2.0005v-10.0005h2.0005v-70.0019h-2.0005v-10.0001h2.0005v-70.0019h-2.0005v-9.999h2.0005v-69.9997h-2.0005V4936.03h2.0005v-70.0015h-2.0005v-10.0001h2.0005v-69.999h-2.0005v-10.0001h2.0005v-46h-2.0005v-10.0001h2.0005v-70.0023h-2.0005v-9.9997h2.0005v-70.002h-2.0005v-9.9997h2.0005v-69.9993h-2.0005v-10.0005h2.0005v-70.0015h-2.0005v-10.0001h2.0005v-69.9989h-2.0005v-10.0002h2.0005v-56.0001h-2.0005v-10.0005h2.0005v-20.0006h-6.0018v-17.9997h6.0018v-20.0006h-2.0005v-10.0001h2.0005v-56.0001h-2.0005v-10.0005h2.0005v-70.0016h-2.0005v-10.0001h2.0005v-69.9989h-2.0005v-10.0005h2.0005v-70.0016h-2.0005V3880.02h2.0005v-70.0023h-2.0005v-9.9997h2.0005v-69.9992h-2.0005v-10.0003h2.0005v-46.0002h-2.0005v-10.0003h2.0005v-70.0005h-2.0005v-10h2.0005v-70.0008h-2.0005v-10.0002h2.0005v-70.0003h-2.0005v-10.0002h2.0005v-70.0008h-2.0005v-9.9998h2.0005v-70.0007h-2.0005v-10.0002h2.0005v-22.0001h-4.0017v-12h4.0017v-14.0003h-2.0005v-2h-14.001v4.0001h-9.999v-4.0001h-28.0014v6h-5.9995v10.0003h2.0005v9.9999h-7.9993v-2h-14.0018v4.0001h-12.0002v-4.0001h-13.9992v2h-7.9997v-9.9999h2.0005v-12.0002h-4.0009v-12.0001h12.0009v12.0001h-4.0017v12.0002h2.0009v3.9999h13.9992v-3.9999h12.0002v3.9999h14.0018v-3.9999h1.9993v-10.0003h-6.001v-18.0001h6.001v-6.0001h-4.0002v-20.0001h13.9992v20.0001h-5.9995v6.0001h5.9995v8h28.0014v-3.9999h9.999v3.9999h14.001v-3.9999h2.0005v-10.0002h-4.0017v-20.0001h14.0022v20.0001h-6.0025v10.0002h2.0008v3.9999h14.0018v-8h15.9993v18.0001h-15.9993v-6h-14.0018v2h-2.0008v14.0003h4.0017v12h-4.0017v22.0001h2.0008v10.0002h-2.0008v70.0007h2.0008v9.9998h-2.0008v70.0008h2.0008v10.0002h-2.0008v70.0003h2.0008v10.0002h-2.0008v70.0008h2.0008v10h-2.0008v70.0005h2.0008v10.0003h-2.0008v46.0002h2.0008v10.0003h-2.0008v69.9992h2.0008v9.9997h-2.0008v70.0023h2.0008v10.0001h-2.0008v70.0016h2.0008v10.0005h-2.0008v69.9989h2.0008v10.0001h-2.0008v70.0016h2.0008v10.0005h-2.0008v56.0001h2.0008v10.0001h-2.0008v20.0006h6.0025v17.9997h-6.0025v20.0006h2.0008v10.0005h-2.0008v56.0001h2.0008v10.0002h-2.0008v69.9989h2.0008v10.0001h-2.0008v70.0015h2.0008v10.0005h-2.0008v69.9993h2.0008v9.9997h-2.0008v70.002h2.0008v9.9997h-2.0008v70.0023h2.0008v10.0001h-2.0008v46h2.0008v10.0001h-2.0008v69.999h2.0008v10.0001h-2.0008v70.0015h2.0008v10.0005h-2.0008v69.9997h2.0008v9.999h-2.0008v70.0019h2.0008v10.0001h-2.0008v70.0019h2.0008v10.0005h-2.0008v56.0001h2.0008v10.0001h-2.0008v19.9999h6.0025v18.0005h-6.0025v20.0002h2.0008v9.9986h-2.0008v56.0024h2.0008v9.9994h-2.0008v69.9993h2.0008v10.0001h-2.0008v70.0019h2.0008v10.0005h-2.0008v69.9989h2.0008v9.9997h-2.0008v70.002h2.0008v10.0005h-2.0008v69.9996h2.0008v9.999h-2.0008v46.0034h2.0008v9.9994h-2.0008v69.9992h2.0008v10.0002h-2.0008v70.0019h2.0008v10.0005h-2.0008v69.9985h2.0008v10.0001h-2.0008v70.002h2.0008v10.0005h-2.0008v50.0013h2.0008v9.9997h-2.0008v25.9998h6.0025v20.0006h-6.0025v11.9972h6.0025v18.0024h-16.0023v-6.0011h-15.9996v6.0011h-15.9986v-6.0011h-28.0002v2.0009h-8v-2.0009h-72.0024v2.0009h-7.9997v-2.0009h-71.9993v2.0009h-8.0023v-2.0009h-71.9994v2.0009h-7.9997v-2.0009h-72.0024v2.0009h-8v-2.0009h-58.0009v2.0009h-7.9997v-2.0009h-21.9984v6.0011h-16.0016v-6.0011h-21.9988v2.0009h-8.0023v-2.0009h-57.9994v2.0009h-8.0008v-2.0009h-71.9994v2.0009h-7.9992v-2.0009h-72.0028v2.0009h-7.9996v-2.0009h-71.9991v2.0009h-8v-2.0009h-72.0024v2.0009h-7.9992v-2.0009h-71.9998v2.0009h-8.0023v-2.0009h-47.9997v2.0009h-8.0004v-2.0009h-71.9998v2.0009h-7.9992v-2.0009h-72.0024v2.0009h-8v-2.0009h-71.999v2.0009h-8.0001v-2.0009h-72.002v2.0009h-7.9996v-2.0009h-71.9998v2.0009h-8.0023v-2.0009h-57.9983v2.0009h-8.0023v-2.0009h-21.998v6.0011h-16.0023v-6.0011h-21.9981v2.0009h-8.0004v-2.0009h-58.0002v2.0009h-8.0015v-2.0009h-72.0002v2.0009h-8v-2.0009h-72.0012v2.0009h-8.0008v-2.0009h-71.9994v2.0009h-7.9996v-2.0009h-72.0024v2.0009h-7.9993v-2.0009h-71.9994v2.0009h-8v-2.0009h-48.0005v2.0009h-8.0015v-2.0009h-72.0001v2.0009h-7.9997v-2.0009h-72.0016v2.0009h-8.0008v-2.0009h-71.999v2.0009h-8v-2.0009h-72.0024v2.0009h-7.9993v-2.0009h-71.9994v2.0009h-8v-2.0009h-58.0006v2.0009h-8.0004v-2.0009h-21.9999v6.0011h-16.0004v-6.0011h-22.0004v2.0009h-7.9996v-2.0009h-58.0006v2.0009h-8v-2.0009h-72.0024v2.0009h-7.9993v-2.0009h-71.9997v2.0009h-8.0016v-2.0009h-72.0005v2.0009h-7.9992v-2.0009h-72.0017v2.0009h-8.0008v-2.0009h-71.999v2.0009h-7.9996v-2.0009h-48.0005v2.0009h-7.9996v-2.0009h-72.0028v2.0009h-7.9993v-2.0009h-71.9993v2.0009h-8.0023v-2.0009h-72.0002v2.0009h-7.9992v-2.0009h-72.0013v2.0009h-8.0011v-2.0009h-71.999v2.0009h-7.9997v-2.0009h-58.001v2.0009h-7.9992v-2.0009h-22.0015v6.0011h-15.9989v-6.0011h-22.0014v2.0009h-7.9997v-2.0009h-58.0009v2.0009h-7.9993v-2.0009h-72.0024v2.0009h-8v-2.0009h-71.999v2.0009h-7.9997v-2.0009h-72.0027v2.0009h-7.9997v-2.0009h-71.999v2.0009h-8.0015v-2.0009h-72.0005v2.0009h-7.9997v-2.0009h-48.0008v2.0009h-7.9993v-2.0009h-72.0028v2.0009h-7.9992v-2.0009h-71.9994v2.0009h-7.9996v-2.0009h-72.0025v2.0009h-8v-2.0009h-71.999v2.0009h-8.0023v-2.0009h-72.0001v2.0009h-7.9996v-2.0009h-24.002v4.0017h-9.9993v-4.0017h-15.9997v2.0009h-2.0008v10.0001h6.0021v17.9997z"/>


  <path fill='#bf91ff' d="m 488.02088,568.02356 v -31.99952 h 31.99951 31.99951 v 31.99952 31.99948 h -31.99951 -31.99951 z" />
  <path fill='#bf91ff' d="m 8515.8973,876.01882 v -31.99953 h 31.9993 31.9998 v 31.99953 31.99949 h -31.9998 -31.9993 z" />
  <path fill='#bf91ff' d="m 7299.916,1648.0069 v -31.9995 h 31.9993 31.9998 v 31.9995 31.9995 h -31.9998 -31.9993 z" />
  <path fill='#bf91ff' d="m 3375.9764,1776.005 v -31.9996 h 31.9995 31.9995 v 31.9996 31.9994 h -31.9995 -31.9995 z" />
  <path fill='#bf91ff' d="m 5207.9481,2159.999 v -31.9995 h 31.9996 31.9995 v 31.9995 31.9995 h -31.9995 -31.9996 z" />
  <path fill='#bf91ff' d="m 3511.9743,2691.9908 v -31.9995 h 31.9995 31.9995 v 31.9995 31.9995 h -31.9995 -31.9995 z" />
  <path fill='#bf91ff' d="m 3919.968,3431.9794 v -31.9995 h 31.9995 31.9995 v 31.9995 31.9995 h -31.9995 -31.9995 z" />
  <path fill='#bf91ff' d="m 5999.9358,3567.9774 v -31.9996 h 31.9998 31.9993 v 31.9996 31.9994 h -31.9993 -31.9998 z" />
  <path fill='#bf91ff' d="m 4847.9537,3631.9763 v -31.9995 h 31.9995 31.9995 v 31.9995 31.9996 h -31.9995 -31.9995 z" />
  <path fill='#bf91ff' d="m 8447.8981,3903.9721 v -31.9994 h 31.9998 31.9992 v 31.9994 31.9996 h -31.9992 -31.9998 z" />
  <path fill='#bf91ff' d="m 464.02125,4303.966 v -31.9995 h 31.99951 31.9995 v 31.9995 31.9995 h -31.9995 -31.99951 z" />
  <path fill='#bf91ff' d="m 4023.9664,4599.9614 v -31.9995 h 31.9995 31.9995 v 31.9995 31.9995 h -31.9995 -31.9995 z" />
  <path fill='#bf91ff' d="m 6719.9247,4951.956 v -31.9995 h 31.9998 31.9993 v 31.9995 31.9995 h -31.9993 -31.9998 z" />
  <path fill='#bf91ff' d="m 632.01868,5699.9447 v -31.9997 h 31.99948 31.99954 v 31.9997 31.9992 h -31.99954 -31.99948 z" />

  <path fill='#fff' d="m 786.0123,113.93733 v -4.00001 h 3.99997 4.00003 v 4.00001 4 h -4.00003 -3.99997 z" />
  <path fill='#fff' d="m 6858.0191,279.93751 v -4 h 4.0003 3.9996 v 4 4.00001 h -3.9996 -4.0003 z" />
  <path fill='#fff' d="m 8706.0214,287.93752 v -4 h 3.9996 4.0003 v 4 4.00001 h -4.0003 -3.9996 z" />
  <path fill='#fff' d="m 4720.0167,295.93753 v -4 h 4 4 v 4 4.00001 h -4 -4 z" />
  <path fill='#fff' d="m 2622.0144,325.93757 v -4.00001 h 3.9999 4.0001 v 4.00001 4 h -4.0001 -3.9999 z" />
  <path fill='#fff' d="m 3766.0157,367.93761 v -4 h 3.9999 4.0001 v 4 4.00001 h -4.0001 -3.9999 z" />
  <path fill='#fff' d="m 1580.0131,457.93771 v -4 h 4.0001 4 v 4 4.00001 h -4 -4.0001 z" />
  <path fill='#fff' d="m 7976.0205,663.93793 v -3.99997 h 3.9997 4.0002 v 3.99997 4.00003 h -4.0002 -3.9997 z" />
  <path fill='#fff' d="m 5778.0179,915.93822 v -3.99998 h 4.0002 3.9997 v 3.99998 4.00002 h -3.9997 -4.0002 z" />
  <path fill='#fff' d="m 1604.0132,1067.9384 v -4 h 4 4 v 4 4 h -4 -4 z" />
  <path fill='#fff' d="m 6600.019,1479.9389 v -4 h 3.9997 4.0002 v 4 4 h -4.0002 -3.9997 z" />
  <path fill='#fff' d="m 8690.0209,1509.9389 v -4 h 4.0003 4.0002 v 4 4 h -4.0002 -4.0003 z" />
  <path fill='#fff' d="m 804.01232,1511.9389 v -4 h 3.99997 4.00003 v 4 4 h -4.00003 -3.99997 z" />
  <path fill='#fff' d="m 3666.0155,1543.9389 v -4 h 4 4 v 4 4 h -4 -4 z" />
  <path fill='#fff' d="m 5012.017,1563.9389 v -3.9999 h 4 4 v 3.9999 4.0001 h -4 -4 z" />
  <path fill='#fff' d="m 7548.0197,1607.939 v -4 h 4.0002 3.9997 v 4 4 h -3.9997 -4.0002 z" />
  <path fill='#fff' d="m 5780.018,1879.9393 v -4 h 3.9997 4.0003 v 4 4 h -4.0003 -3.9997 z" />
  <path fill='#fff' d="m 2232.0139,2051.9395 v -4 h 4 4 v 4 4 h -4 -4 z" />
  <path fill='#fff' d="m 7586.0198,2337.9398 v -4 h 4.0003 3.9997 v 4 4 h -3.9997 -4.0003 z" />
  <path fill='#fff' d="m 1252.0128,2499.94 v -4 h 4 4 v 4 4 h -4 -4 z" />
  <path fill='#fff' d="m 3562.0154,2533.94 v -4 h 4 4 v 4 4 h -4 -4 z" />
  <path fill='#fff' d="m 2440.0141,2663.9402 v -4 h 4 4 v 4 4 h -4 -4 z" />
  <path fill='#fff' d="m 7058.0194,2677.9402 v -4 h 3.9997 4.0003 v 4 4 h -4.0003 -3.9997 z" />
  <path fill='#fff' d="m 8790.0211,2897.9405 v -4.0001 h 4.0002 3.9997 v 4.0001 4 h -3.9997 -4.0002 z" />
  <path fill='#fff' d="m 156.01158,3073.9406 v -3.9999 h 4 4.00001 v 3.9999 4.0001 h -4.00001 -4 z" />
  <path fill='#fff' d="m 5618.0177,3131.9407 v -4 h 4 4 v 4 4 h -4 -4 z" />
  <path fill='#fff' d="m 4748.0167,3167.9408 v -4.0001 h 4 4.0001 v 4.0001 4 h -4.0001 -4 z" />
  <path fill='#fff' d="m 6296.0182,3339.941 v -4.0001 h 4.0003 4.0002 v 4.0001 3.9999 h -4.0002 -4.0003 z" />
  <path fill='#fff' d="m 2448.0141,3671.9413 v -4 h 4.0001 3.9999 v 4 4 h -3.9999 -4.0001 z" />
  <path fill='#fff' d="m 8184.0208,3719.9414 v -4 h 3.9997 4.0002 v 4 4 h -4.0002 -3.9997 z" />
  <path fill='#fff' d="m 7070.0191,3719.9414 v -4 h 4.0002 4.0003 v 4 4 h -4.0003 -4.0002 z" />
  <path fill='#fff' d="m 4348.0163,3759.9414 v -4 h 4 4 v 4 4 h -4 -4 z" />
  <path fill='#fff' d="m 1312.0129,3769.9414 v -3.9999 h 4 4 v 3.9999 4.0001 h -4 -4 z" />
  <path fill='#fff' d="m 714.01222,3785.9414 v -3.9999 h 3.99997 4.00003 v 3.9999 4.0001 h -4.00003 -3.99997 z" />
  <path fill='#fff' d="m 9252.0218,3911.9416 v -4 h 4.0002 3.9997 v 4 4 h -3.9997 -4.0002 z" />
  <path fill='#fff' d="m 3216.015,4123.9418 v -4 h 4 4 v 4 4 h -4 -4 z" />
  <path fill='#fff' d="m 3952.0158,4407.9421 v -3.9999 h 4 4 v 3.9999 4.0001 h -4 -4 z" />
  <path fill='#fff' d="m 7240.0198,4427.9422 v -4.0001 h 3.9997 4.0002 v 4.0001 4 h -4.0002 -3.9997 z" />
  <path fill='#fff' d="m 2446.0141,4507.9423 v -4 h 4.0001 3.9999 v 4 4 h -3.9999 -4.0001 z" />
  <path fill='#fff' d="m 8620.0209,4667.9424 v -4 h 4.0003 3.9997 v 4 4 h -3.9997 -4.0003 z" />
  <path fill='#fff' d="m 876.0124,4679.9425 v -4.0001 h 3.99997 4.00003 v 4.0001 4 h -4.00003 -3.99997 z" />
  <path fill='#fff' d="m 5864.0177,4743.9425 v -4 h 4.0003 4.0002 v 4 4 h -4.0002 -4.0003 z" />
  <path fill='#fff' d="m 7892.0202,5117.9429 v -3.9999 h 4.0002 3.9997 v 3.9999 4.0001 h -3.9997 -4.0002 z" />
  <path fill='#fff' d="m 1614.0132,5119.9429 v -3.9999 h 4 4 v 3.9999 4.0001 h -4 -4 z" />
  <path fill='#fff' d="m 4888.0169,5251.9431 v -4 h 4 4 v 4 4 h -4 -4 z" />
  <path fill='#fff' d="m 7364.0198,5581.9435 v -4.0001 h 3.9997 4.0002 v 4.0001 3.9999 h -4.0002 -3.9997 z" />
  <path fill='#fff' d="m 3692.0156,5699.9438 v -4.0003 h 3.9999 4.0001 v 4.0003 3.9997 h -4.0001 -3.9999 z" />
  <path fill='#fff' d="m 2226.0139,5861.944 v -4.0003 h 4 4 v 4.0003 3.9997 h -4 -4 z" />
  <path fill='#fff' d="m 1166.0127,5861.944 v -4.0003 h 4 4 v 4.0003 3.9997 h -4 -4 z" />
  <path fill='#fff' d="m 6216.0182,5865.9437 v -3.9997 h 4.0002 3.9997 v 3.9997 4.0002 h -3.9997 -4.0002 z" />
  <path fill='#fff' d="m 9296.0218,6057.9441 v -4.0003 h 4.0002 3.9997 v 4.0003 3.9997 h -3.9997 -4.0002 z" />
  <path fill='#fff' d="m 80.011489,6099.9439 v -3.9997 h 4.000007 4.000001 v 3.9997 4.0003 h -4.000001 -4.000007 z" />
  <path fill='#fff' d="m 8352.0208,6151.9439 v -3.9997 h 4.0002 3.9997 v 3.9997 4.0002 h -3.9997 -4.0002 z" />
  <path fill='#fff' d="m 4484.0164,6249.9445 v -4.0003 h 4 4 v 4.0003 3.9997 h -4 -4 z" />
</svg>
