<?xml version="1.0" standalone="no"?>
<!DOCTYPE svg PUBLIC "-//W3C//DTD SVG 20010904//EN" "http://www.w3.org/TR/2001/REC-SVG-20010904/DTD/svg10.dtd">
<svg version="1.0" xmlns="http://www.w3.org/2000/svg"
    width="250.000000pt" height="250.000000pt" viewBox="0 0 250.000000 250.000000"
    preserveAspectRatio="xMidYMid meet">
    <metadata>
        Created by potrace 1.16, written by Peter Selinger 2001-2019
    </metadata>
    <g transform="translate(0.000000,250.000000) scale(0.100000,-0.100000)" stroke="none">
        <path fill='currentColor' d="M750 2430 c0 -27 5 -50 10 -50 6 0 10 -7 10 -15 0 -12 -23 -15 -122
        -17 l-122 -3 3 -48 c4 -64 -9 -77 -75 -77 l-53 0 -3 -57 -3 -58 -60 -5 -60 -5
        -5 -60 -5 -60 -60 -5 -60 -5 -5 -125 -5 -125 -63 -3 -62 -3 2 -471 3 -471 59
        -1 59 -1 1 -125 1 -125 63 -3 c44 -2 62 -7 62 -17 0 -7 -4 -15 -9 -17 -5 -1
        -6 -21 -2 -43 l6 -40 65 -5 65 -5 3 -62 3 -62 62 -3 62 -3 3 -67 3 -68 114 0
        115 0 0 -60 0 -60 490 0 490 0 0 63 0 62 121 -3 c79 -3 125 0 132 7 6 6 10 27
        9 46 -2 22 2 35 10 35 9 0 9 3 0 12 -26 26 -13 37 46 40 l57 3 5 60 5 60 60 5
        60 5 3 58 3 57 59 0 59 0 3 128 3 127 63 3 62 3 -1 372 c-1 205 -4 417 -8 471
        l-6 99 -55 1 -55 1 -5 125 -5 125 -60 5 -60 5 -5 60 -5 60 -60 5 -60 5 -3 57
        -3 57 -57 3 -57 3 -3 62 -3 62 -127 3 -127 3 -3 63 -3 62 -484 0 -485 0 0 -50z
        m845 -895 l0 -40 62 -3 c56 -3 63 -5 69 -26 3 -13 4 -35 2 -47 -3 -24 -5 -24
        -153 -29 l-150 -5 -3 -57 -3 -57 108 -3 108 -3 3 -42 c3 -43 4 -43 42 -43 44
        0 47 -6 42 -82 l-4 -58 -39 0 c-39 0 -39 0 -39 -40 0 -34 -4 -42 -25 -50 -21
        -8 -25 -16 -25 -50 l0 -41 -47 3 -48 3 -3 43 -3 42 -85 0 -85 0 3 48 3 47 148
        3 147 3 0 59 0 59 -107 3 -108 3 -3 43 c-3 42 -3 42 -43 42 l-40 0 3 68 3 67
        38 3 c33 3 37 6 37 32 0 49 9 60 51 60 l39 0 0 46 0 45 53 -3 52 -3 0 -40z
        m-829 -69 c3 -13 4 -35 2 -47 -3 -24 -4 -24 -178 -29 l-175 -5 0 -165 0 -165
        123 -3 122 -3 0 61 0 60 -86 0 -85 0 3 48 3 47 135 0 135 0 0 -100 c0 -55 -2
        -106 -4 -112 -2 -8 -19 -13 -42 -13 -36 0 -39 -2 -39 -29 0 -61 0 -61 -146
        -61 l-134 0 0 44 0 45 -42 3 -43 3 0 175 0 175 43 3 c41 3 42 4 42 41 0 21 3
        41 7 44 3 4 84 7 179 7 l174 0 6 -24z m172 -88 l3 -108 99 0 100 0 0 94 c0
        122 2 126 56 126 l44 0 0 -270 0 -270 -44 0 c-54 0 -56 4 -56 126 l0 94 -100
        0 -99 0 -3 -107 -3 -108 -47 -3 -48 -3 0 271 0 271 48 -3 47 -3 3 -107z m1310
        60 l3 -48 -85 0 -86 0 0 -204 c0 -112 -3 -211 -6 -220 -9 -22 -89 -22 -98 0
        -3 9 -6 108 -6 220 l0 204 -85 0 -85 0 0 43 c0 24 3 47 7 51 4 3 104 5 222 4
        l216 -3 3 -47z"/>
    </g>
</svg>
